%
M48
M72
T01C0.0276
T02C0.0320
T03C0.0400
%
T01
X1850Y5600
X1850Y6600
X3100Y6600
X3100Y5600
X4350Y3350
X5350Y3350
X4850Y8850
X4850Y9850
X3100Y9850
X3100Y8850
T02
X4350Y7350
X5350Y7350
X6350Y7350
X7350Y7350
X7350Y4350
X6350Y4350
X5350Y4350
X4350Y4350
T03
X4350Y1850
X5350Y1850
X6850Y1850
X6850Y2850
X6850Y8850
X6850Y9850
X1850Y10100
X1850Y8850
X1850Y7850
M30
