G75*
%MOIN*%
%OFA0B0*%
%FSLAX24Y24*%
%IPPOS*%
%LPD*%
%AMOC8*
5,1,8,0,0,1.08239X$1,22.5*
%
%ADD10C,0.0520*%
%ADD11C,0.0650*%
%ADD12C,0.0740*%
%ADD13C,0.0500*%
D10*
X004350Y004350D03*
X005350Y004350D03*
X006350Y004350D03*
X007350Y004350D03*
X007350Y007350D03*
X006350Y007350D03*
X005350Y007350D03*
X004350Y007350D03*
D11*
X004850Y008850D03*
X004850Y009850D03*
X003100Y009850D03*
X003100Y008850D03*
X003100Y006600D03*
X003100Y005600D03*
X001850Y005600D03*
X001850Y006600D03*
X004350Y003350D03*
X005350Y003350D03*
D12*
X005350Y001850D03*
X004350Y001850D03*
X006850Y001850D03*
X006850Y002850D03*
X006850Y008850D03*
X006850Y009850D03*
X001850Y010100D03*
X001850Y008850D03*
X001850Y007850D03*
D13*
X001000Y011500D02*
X001000Y001000D01*
X008755Y001000D01*
X008755Y011500D01*
X001000Y011500D01*
X001000Y011317D02*
X008755Y011317D01*
X008755Y010819D02*
X001909Y010819D01*
X001897Y010820D02*
X001850Y010820D01*
X001850Y010100D01*
X001850Y010100D01*
X001850Y010100D01*
X001130Y010100D01*
X001130Y010147D01*
X001142Y010241D01*
X001167Y010332D01*
X001203Y010419D01*
X001250Y010501D01*
X001308Y010576D01*
X001374Y010642D01*
X001449Y010700D01*
X001531Y010747D01*
X001618Y010783D01*
X001709Y010808D01*
X001803Y010820D01*
X001850Y010820D01*
X001850Y010100D01*
X001130Y010100D01*
X001130Y010053D01*
X001142Y009959D01*
X001167Y009868D01*
X001203Y009781D01*
X001250Y009699D01*
X001308Y009624D01*
X001374Y009558D01*
X001389Y009546D01*
X001386Y009545D01*
X001155Y009314D01*
X001030Y009013D01*
X001030Y008687D01*
X001155Y008386D01*
X001190Y008350D01*
X001155Y008314D01*
X001030Y008013D01*
X001030Y007687D01*
X001150Y007397D01*
X001150Y006935D01*
X001075Y006754D01*
X001075Y006446D01*
X001193Y006161D01*
X001327Y006027D01*
X001288Y005976D01*
X001243Y005899D01*
X001209Y005817D01*
X001187Y005732D01*
X001175Y005644D01*
X001175Y005600D01*
X001850Y005600D01*
X002525Y005600D01*
X003100Y005600D01*
X003100Y004925D01*
X003144Y004925D01*
X003232Y004937D01*
X003317Y004959D01*
X003399Y004993D01*
X003476Y005038D01*
X003546Y005091D01*
X003609Y005154D01*
X003662Y005224D01*
X003707Y005301D01*
X003741Y005383D01*
X003759Y005451D01*
X003953Y005257D01*
X004211Y005150D01*
X006560Y005150D01*
X006650Y005060D01*
X006650Y004994D01*
X006491Y005060D01*
X006209Y005060D01*
X005948Y004952D01*
X005850Y004854D01*
X005752Y004952D01*
X005491Y005060D01*
X005209Y005060D01*
X004948Y004952D01*
X004779Y004783D01*
X004747Y004815D01*
X004670Y004872D01*
X004584Y004915D01*
X004493Y004945D01*
X004398Y004960D01*
X004350Y004960D01*
X004350Y004350D01*
X004350Y004350D01*
X004350Y004350D01*
X003740Y004350D01*
X003740Y004398D01*
X003755Y004493D01*
X003785Y004584D01*
X003828Y004670D01*
X003885Y004747D01*
X003953Y004815D01*
X004030Y004872D01*
X004116Y004915D01*
X004207Y004945D01*
X004302Y004960D01*
X004350Y004960D01*
X004350Y004350D01*
X004350Y003350D01*
X004350Y003350D01*
X004350Y002675D01*
X004394Y002675D01*
X004482Y002687D01*
X004567Y002709D01*
X004649Y002743D01*
X004650Y002744D01*
X004650Y002505D01*
X004582Y002533D01*
X004491Y002558D01*
X004397Y002570D01*
X004350Y002570D01*
X004350Y001850D01*
X004350Y001850D01*
X004350Y001130D01*
X004397Y001130D01*
X004491Y001142D01*
X004582Y001167D01*
X004669Y001203D01*
X004751Y001250D01*
X004773Y001267D01*
X004886Y001155D01*
X005187Y001030D01*
X005513Y001030D01*
X005814Y001155D01*
X006045Y001386D01*
X006157Y001655D01*
X006167Y001618D01*
X006203Y001531D01*
X006250Y001449D01*
X006308Y001374D01*
X006374Y001308D01*
X006449Y001250D01*
X006531Y001203D01*
X006618Y001167D01*
X006709Y001142D01*
X006803Y001130D01*
X006850Y001130D01*
X006897Y001130D01*
X006991Y001142D01*
X007082Y001167D01*
X007169Y001203D01*
X007251Y001250D01*
X007326Y001308D01*
X007392Y001374D01*
X007450Y001449D01*
X007497Y001531D01*
X007533Y001618D01*
X007558Y001709D01*
X007570Y001803D01*
X007570Y001850D01*
X007570Y001897D01*
X007558Y001991D01*
X007533Y002082D01*
X007497Y002169D01*
X007450Y002251D01*
X007433Y002273D01*
X007545Y002386D01*
X007670Y002687D01*
X007670Y003013D01*
X007545Y003314D01*
X007314Y003545D01*
X007050Y003655D01*
X007050Y003706D01*
X007209Y003640D01*
X007491Y003640D01*
X007752Y003748D01*
X007952Y003948D01*
X008060Y004209D01*
X008060Y004491D01*
X008050Y004515D01*
X008050Y005489D01*
X007943Y005747D01*
X007747Y005943D01*
X007247Y006443D01*
X006989Y006550D01*
X004640Y006550D01*
X004533Y006657D01*
X004752Y006748D01*
X004850Y006846D01*
X004948Y006748D01*
X005209Y006640D01*
X005491Y006640D01*
X005752Y006748D01*
X005850Y006846D01*
X005948Y006748D01*
X006209Y006640D01*
X006491Y006640D01*
X006752Y006748D01*
X006850Y006846D01*
X006948Y006748D01*
X007209Y006640D01*
X007491Y006640D01*
X007752Y006748D01*
X007952Y006948D01*
X008060Y007209D01*
X008060Y007491D01*
X008050Y007515D01*
X008050Y007989D01*
X007943Y008247D01*
X007621Y008569D01*
X007670Y008687D01*
X007670Y009013D01*
X007545Y009314D01*
X007433Y009427D01*
X007450Y009449D01*
X007497Y009531D01*
X007533Y009618D01*
X007558Y009709D01*
X007570Y009803D01*
X007570Y009850D01*
X007570Y009897D01*
X007558Y009991D01*
X007533Y010082D01*
X007497Y010169D01*
X007450Y010251D01*
X007392Y010326D01*
X007326Y010392D01*
X007251Y010450D01*
X007169Y010497D01*
X007082Y010533D01*
X006991Y010558D01*
X006897Y010570D01*
X006850Y010570D01*
X006850Y009850D01*
X006850Y009850D01*
X007570Y009850D01*
X006850Y009850D01*
X006850Y009850D01*
X006850Y009850D01*
X006130Y009850D01*
X006130Y009897D01*
X006142Y009991D01*
X006167Y010082D01*
X006203Y010169D01*
X006250Y010251D01*
X006308Y010326D01*
X006374Y010392D01*
X006449Y010450D01*
X006531Y010497D01*
X006618Y010533D01*
X006709Y010558D01*
X006803Y010570D01*
X006850Y010570D01*
X006850Y009850D01*
X006130Y009850D01*
X006130Y009803D01*
X006142Y009709D01*
X006167Y009618D01*
X006203Y009531D01*
X006250Y009449D01*
X006267Y009427D01*
X006155Y009314D01*
X006030Y009013D01*
X006030Y008687D01*
X006079Y008569D01*
X006035Y008525D01*
X005943Y008747D01*
X005582Y009108D01*
X005507Y009289D01*
X005373Y009423D01*
X005412Y009474D01*
X005457Y009551D01*
X005491Y009633D01*
X005513Y009718D01*
X005525Y009806D01*
X005525Y009850D01*
X005525Y009894D01*
X005513Y009982D01*
X005491Y010067D01*
X005457Y010149D01*
X005412Y010226D01*
X005359Y010296D01*
X005296Y010359D01*
X005226Y010412D01*
X005149Y010457D01*
X005067Y010491D01*
X004982Y010513D01*
X004894Y010525D01*
X004850Y010525D01*
X004850Y009850D01*
X004850Y009850D01*
X005525Y009850D01*
X004850Y009850D01*
X004850Y009850D01*
X004850Y009850D01*
X004175Y009850D01*
X004175Y009894D01*
X004187Y009982D01*
X004209Y010067D01*
X004243Y010149D01*
X004288Y010226D01*
X004341Y010296D01*
X004404Y010359D01*
X004474Y010412D01*
X004551Y010457D01*
X004633Y010491D01*
X004718Y010513D01*
X004806Y010525D01*
X004850Y010525D01*
X004850Y009850D01*
X004175Y009850D01*
X004175Y009806D01*
X004187Y009718D01*
X004209Y009633D01*
X004243Y009551D01*
X004244Y009550D01*
X003706Y009550D01*
X003707Y009551D01*
X003741Y009633D01*
X003763Y009718D01*
X003775Y009806D01*
X003775Y009850D01*
X003775Y009894D01*
X003763Y009982D01*
X003741Y010067D01*
X003707Y010149D01*
X003662Y010226D01*
X003609Y010296D01*
X003546Y010359D01*
X003476Y010412D01*
X003399Y010457D01*
X003317Y010491D01*
X003232Y010513D01*
X003144Y010525D01*
X003100Y010525D01*
X003100Y009850D01*
X003100Y009850D01*
X003775Y009850D01*
X003100Y009850D01*
X003100Y009850D01*
X003100Y010525D01*
X003056Y010525D01*
X002968Y010513D01*
X002883Y010491D01*
X002801Y010457D01*
X002724Y010412D01*
X002654Y010359D01*
X002591Y010296D01*
X002555Y010249D01*
X002533Y010332D01*
X002497Y010419D01*
X002450Y010501D01*
X002392Y010576D01*
X002326Y010642D01*
X002251Y010700D01*
X002169Y010747D01*
X002082Y010783D01*
X001991Y010808D01*
X001897Y010820D01*
X001850Y010819D02*
X001850Y010819D01*
X001791Y010819D02*
X001000Y010819D01*
X001000Y010320D02*
X001164Y010320D01*
X001186Y009822D02*
X001000Y009822D01*
X001000Y009323D02*
X001163Y009323D01*
X001030Y008825D02*
X001000Y008825D01*
X001000Y008326D02*
X001166Y008326D01*
X001030Y007828D02*
X001000Y007828D01*
X001000Y007329D02*
X001150Y007329D01*
X001107Y006831D02*
X001000Y006831D01*
X001000Y006332D02*
X001122Y006332D01*
X001216Y005834D02*
X001000Y005834D01*
X001175Y005600D02*
X001175Y005556D01*
X001187Y005468D01*
X001209Y005383D01*
X001243Y005301D01*
X001288Y005224D01*
X001341Y005154D01*
X001404Y005091D01*
X001474Y005038D01*
X001551Y004993D01*
X001633Y004959D01*
X001718Y004937D01*
X001806Y004925D01*
X001850Y004925D01*
X001894Y004925D01*
X001982Y004937D01*
X002067Y004959D01*
X002149Y004993D01*
X002226Y005038D01*
X002296Y005091D01*
X002359Y005154D01*
X002412Y005224D01*
X002457Y005301D01*
X002475Y005345D01*
X002493Y005301D01*
X002538Y005224D01*
X002591Y005154D01*
X002654Y005091D01*
X002724Y005038D01*
X002801Y004993D01*
X002883Y004959D01*
X002968Y004937D01*
X003056Y004925D01*
X003100Y004925D01*
X003100Y005600D01*
X003100Y005600D01*
X003100Y005600D01*
X001850Y005600D01*
X001850Y005600D01*
X001850Y004925D01*
X001850Y005600D01*
X001850Y005600D01*
X001850Y005600D01*
X001175Y005600D01*
X001229Y005335D02*
X001000Y005335D01*
X001000Y004837D02*
X003982Y004837D01*
X004350Y004837D02*
X004350Y004837D01*
X004718Y004837D02*
X004832Y004837D01*
X004350Y004350D02*
X004350Y004350D01*
X003740Y004350D01*
X003740Y004302D01*
X003755Y004207D01*
X003785Y004116D01*
X003828Y004030D01*
X003885Y003953D01*
X003946Y003891D01*
X003904Y003859D01*
X003841Y003796D01*
X003788Y003726D01*
X003743Y003649D01*
X003709Y003567D01*
X003687Y003482D01*
X003675Y003394D01*
X003675Y003350D01*
X004350Y003350D01*
X004350Y003350D01*
X004350Y003350D01*
X004350Y004025D01*
X004350Y004350D01*
X004350Y004338D02*
X004350Y004338D01*
X004350Y003840D02*
X004350Y003840D01*
X003885Y003840D02*
X001000Y003840D01*
X001000Y004338D02*
X003740Y004338D01*
X003675Y003350D02*
X003675Y003306D01*
X003687Y003218D01*
X003709Y003133D01*
X003743Y003051D01*
X003788Y002974D01*
X003841Y002904D01*
X003904Y002841D01*
X003974Y002788D01*
X004051Y002743D01*
X004133Y002709D01*
X004218Y002687D01*
X004306Y002675D01*
X004350Y002675D01*
X004350Y003350D01*
X003675Y003350D01*
X003675Y003341D02*
X001000Y003341D01*
X001000Y002843D02*
X003903Y002843D01*
X004031Y002497D02*
X003949Y002450D01*
X003874Y002392D01*
X003808Y002326D01*
X003750Y002251D01*
X003703Y002169D01*
X003667Y002082D01*
X003642Y001991D01*
X003630Y001897D01*
X003630Y001850D01*
X004350Y001850D01*
X004350Y001850D01*
X004350Y001850D01*
X004350Y002570D01*
X004303Y002570D01*
X004209Y002558D01*
X004118Y002533D01*
X004031Y002497D01*
X003826Y002344D02*
X001000Y002344D01*
X001000Y001846D02*
X003630Y001846D01*
X003630Y001850D02*
X003630Y001803D01*
X003642Y001709D01*
X003667Y001618D01*
X003703Y001531D01*
X003750Y001449D01*
X003808Y001374D01*
X003874Y001308D01*
X003949Y001250D01*
X004031Y001203D01*
X004118Y001167D01*
X004209Y001142D01*
X004303Y001130D01*
X004350Y001130D01*
X004350Y001850D01*
X003630Y001850D01*
X003835Y001347D02*
X001000Y001347D01*
X001850Y005335D02*
X001850Y005335D01*
X002471Y005335D02*
X002479Y005335D01*
X003100Y005335D02*
X003100Y005335D01*
X003721Y005335D02*
X003875Y005335D01*
X004350Y005850D02*
X006850Y005850D01*
X007350Y005350D01*
X007350Y004350D01*
X007844Y003840D02*
X008755Y003840D01*
X008755Y004338D02*
X008060Y004338D01*
X008050Y004837D02*
X008755Y004837D01*
X008755Y005335D02*
X008050Y005335D01*
X007856Y005834D02*
X008755Y005834D01*
X008755Y006332D02*
X007358Y006332D01*
X007835Y006831D02*
X008755Y006831D01*
X008755Y007329D02*
X008060Y007329D01*
X008050Y007828D02*
X008755Y007828D01*
X008755Y008326D02*
X007864Y008326D01*
X007670Y008825D02*
X008755Y008825D01*
X008755Y009323D02*
X007537Y009323D01*
X007570Y009822D02*
X008755Y009822D01*
X008755Y010320D02*
X007397Y010320D01*
X006850Y010320D02*
X006850Y010320D01*
X006303Y010320D02*
X005335Y010320D01*
X005525Y009822D02*
X006130Y009822D01*
X006163Y009323D02*
X005473Y009323D01*
X005865Y008825D02*
X006030Y008825D01*
X005350Y008350D02*
X004850Y008850D01*
X003100Y008850D01*
X001850Y008850D01*
X001850Y007850D02*
X001850Y006600D01*
X003100Y006600D01*
X003600Y006600D01*
X004350Y005850D01*
X004835Y006831D02*
X004865Y006831D01*
X005350Y007350D02*
X005350Y008350D01*
X006350Y007850D02*
X006350Y007350D01*
X006350Y007850D02*
X006850Y008350D01*
X007350Y007850D01*
X007350Y007350D01*
X006865Y006831D02*
X006835Y006831D01*
X005865Y006831D02*
X005835Y006831D01*
X006850Y008350D02*
X006850Y008850D01*
X004850Y010320D02*
X004850Y010320D01*
X004365Y010320D02*
X003585Y010320D01*
X003775Y009822D02*
X004175Y009822D01*
X003100Y010320D02*
X003100Y010320D01*
X002615Y010320D02*
X002536Y010320D01*
X001850Y010320D02*
X001850Y010320D01*
X005350Y004350D02*
X005350Y003350D01*
X005350Y001850D01*
X006007Y001347D02*
X006335Y001347D01*
X006850Y001347D02*
X006850Y001347D01*
X006850Y001130D02*
X006850Y001850D01*
X007570Y001850D01*
X006850Y001850D01*
X006850Y001850D01*
X006850Y001130D01*
X007365Y001347D02*
X008755Y001347D01*
X008755Y001846D02*
X007570Y001846D01*
X007504Y002344D02*
X008755Y002344D01*
X008755Y002843D02*
X007670Y002843D01*
X007519Y003341D02*
X008755Y003341D01*
X006850Y002850D02*
X006350Y003350D01*
X006350Y004350D01*
X006850Y001850D02*
X006850Y001850D01*
X006850Y001846D02*
X006850Y001846D01*
X004350Y001846D02*
X004350Y001846D01*
X004350Y002344D02*
X004350Y002344D01*
X004350Y002843D02*
X004350Y002843D01*
X004350Y003341D02*
X004350Y003341D01*
X004350Y001347D02*
X004350Y001347D01*
M02*
