G75*
%MOIN*%
%OFA0B0*%
%FSLAX24Y24*%
%IPPOS*%
%LPD*%
%AMOC8*
5,1,8,0,0,1.08239X$1,22.5*
%
%ADD10C,0.0867*%
%ADD11C,0.0600*%
%ADD12C,0.0820*%
%ADD13C,0.0730*%
%ADD14C,0.0780*%
D10*
X005583Y004250D03*
X005583Y013750D03*
X027583Y013750D03*
X027583Y004250D03*
D11*
X019333Y009000D03*
X019333Y010000D03*
X019333Y011000D03*
X019333Y012000D03*
X016333Y012000D03*
X016333Y011000D03*
X016333Y010000D03*
X016333Y009000D03*
D12*
X015333Y008000D03*
X013833Y006000D03*
X009833Y006000D03*
X009833Y010000D03*
X013833Y010000D03*
X013833Y012000D03*
X015333Y012000D03*
X009833Y012000D03*
D13*
X011083Y008500D03*
X011083Y007500D03*
X021333Y007000D03*
X022833Y007000D03*
X022833Y006000D03*
X021333Y006000D03*
X021333Y011500D03*
X022833Y011500D03*
X022833Y012500D03*
X021333Y012500D03*
D14*
X025377Y012484D02*
X026077Y012484D01*
X026077Y010516D02*
X025377Y010516D01*
X025377Y007984D02*
X026077Y007984D01*
X026077Y006016D02*
X025377Y006016D01*
X018818Y006544D02*
X018818Y007244D01*
X016849Y007244D02*
X016849Y006544D01*
X007790Y006016D02*
X007090Y006016D01*
X007090Y007984D02*
X007790Y007984D01*
X007790Y010516D02*
X007090Y010516D01*
X007090Y012484D02*
X007790Y012484D01*
M02*
