G75*
%MOIN*%
%OFA0B0*%
%FSLAX24Y24*%
%IPPOS*%
%LPD*%
%AMOC8*
5,1,8,0,0,1.08239X$1,22.5*
%
%ADD10C,0.0060*%
%ADD11C,0.0080*%
%ADD12C,0.0050*%
D10*
X019683Y009500D02*
X021983Y009500D01*
X021983Y013500D01*
X021233Y013500D01*
X021231Y013461D01*
X021225Y013422D01*
X021216Y013384D01*
X021203Y013347D01*
X021186Y013311D01*
X021166Y013278D01*
X021142Y013246D01*
X021116Y013217D01*
X021087Y013191D01*
X021055Y013167D01*
X021022Y013147D01*
X020986Y013130D01*
X020949Y013117D01*
X020911Y013108D01*
X020872Y013102D01*
X020833Y013100D01*
X020794Y013102D01*
X020755Y013108D01*
X020717Y013117D01*
X020680Y013130D01*
X020644Y013147D01*
X020611Y013167D01*
X020579Y013191D01*
X020550Y013217D01*
X020524Y013246D01*
X020500Y013278D01*
X020480Y013311D01*
X020463Y013347D01*
X020450Y013384D01*
X020441Y013422D01*
X020435Y013461D01*
X020433Y013500D01*
X019683Y013500D01*
X019683Y009500D01*
D11*
X018306Y008760D02*
X017361Y008760D01*
X017361Y011240D01*
X018306Y011240D01*
X018306Y008760D01*
X016073Y009528D02*
X013593Y009528D01*
X013593Y010472D01*
X016073Y010472D01*
X016073Y009528D01*
X013333Y008500D02*
X012333Y008500D01*
X012333Y006500D01*
X013333Y006500D01*
X013333Y008500D01*
X013083Y007500D02*
X012583Y007500D01*
X013593Y006472D02*
X016073Y006472D01*
X016073Y005528D01*
X013593Y005528D01*
X013593Y006472D01*
X013593Y011528D02*
X016073Y011528D01*
X016073Y012472D01*
X013593Y012472D01*
X013593Y011528D01*
X013333Y015000D02*
X014333Y015000D01*
X014333Y017000D01*
X013333Y017000D01*
X013333Y015000D01*
X014833Y015000D02*
X015833Y015000D01*
X015833Y017000D01*
X014833Y017000D01*
X014833Y015000D01*
X015083Y016000D02*
X015583Y016000D01*
X014083Y016000D02*
X013583Y016000D01*
X020833Y015000D02*
X021833Y015000D01*
X021833Y017000D01*
X020833Y017000D01*
X020833Y015000D01*
X022333Y015000D02*
X023333Y015000D01*
X023333Y017000D01*
X022333Y017000D01*
X022333Y015000D01*
X022583Y016000D02*
X023083Y016000D01*
X021583Y016000D02*
X021083Y016000D01*
D12*
X008759Y005622D02*
X008759Y005031D01*
X011908Y005031D01*
X011908Y008969D01*
X008759Y008969D01*
X008759Y008378D01*
X010333Y008378D01*
X010333Y007591D01*
X008759Y007591D01*
X008759Y008378D01*
X008759Y007591D02*
X008759Y006409D01*
X010333Y006409D01*
X010333Y005622D01*
X008759Y005622D01*
X008759Y006409D01*
X008759Y009531D02*
X008759Y010122D01*
X010333Y010122D01*
X010333Y010909D01*
X008759Y010909D01*
X008759Y012091D01*
X010333Y012091D01*
X010333Y012878D01*
X008759Y012878D01*
X008759Y013469D01*
X011908Y013469D01*
X011908Y009531D01*
X008759Y009531D01*
X008759Y010122D02*
X008759Y010909D01*
X008759Y012091D02*
X008759Y012878D01*
X008865Y014925D02*
X012802Y014925D01*
X012802Y018075D01*
X012211Y018075D01*
X012211Y016500D01*
X011424Y016500D01*
X011424Y018075D01*
X012211Y018075D01*
X011424Y018075D02*
X010243Y018075D01*
X010243Y016500D01*
X009455Y016500D01*
X009455Y018075D01*
X010243Y018075D01*
X009455Y018075D02*
X008865Y018075D01*
X008865Y014925D01*
X013958Y012100D02*
X014003Y012145D01*
X014093Y012145D01*
X014138Y012100D01*
X014138Y012055D01*
X013958Y011875D01*
X014138Y011875D01*
X014253Y011920D02*
X014298Y011875D01*
X014388Y011875D01*
X014433Y011920D01*
X014433Y012010D01*
X014388Y012055D01*
X014343Y012055D01*
X014253Y012010D01*
X014253Y012145D01*
X014433Y012145D01*
X014548Y012145D02*
X014548Y011875D01*
X014548Y011965D02*
X014683Y012055D01*
X014548Y011965D02*
X014683Y011875D01*
X014548Y010145D02*
X014548Y009875D01*
X014548Y009965D02*
X014683Y010055D01*
X014548Y009965D02*
X014683Y009875D01*
X014433Y009920D02*
X014388Y009875D01*
X014298Y009875D01*
X014253Y009920D01*
X014253Y010010D02*
X014343Y010055D01*
X014388Y010055D01*
X014433Y010010D01*
X014433Y009920D01*
X014253Y010010D02*
X014253Y010145D01*
X014433Y010145D01*
X014138Y010100D02*
X014138Y010055D01*
X013958Y009875D01*
X014138Y009875D01*
X014138Y010100D02*
X014093Y010145D01*
X014003Y010145D01*
X013958Y010100D01*
X017708Y010135D02*
X017753Y010090D01*
X017708Y010135D02*
X017708Y010225D01*
X017753Y010270D01*
X017798Y010270D01*
X017978Y010090D01*
X017978Y010270D01*
X017933Y010385D02*
X017978Y010430D01*
X017978Y010520D01*
X017933Y010565D01*
X017843Y010565D01*
X017798Y010520D01*
X017798Y010475D01*
X017843Y010385D01*
X017708Y010385D01*
X017708Y010565D01*
X017708Y010679D02*
X017978Y010679D01*
X017888Y010679D02*
X017978Y010815D01*
X017888Y010679D02*
X017798Y010815D01*
X022259Y008969D02*
X022259Y005031D01*
X025408Y005031D01*
X025408Y005622D01*
X023833Y005622D01*
X023833Y006409D01*
X025408Y006409D01*
X025408Y005622D01*
X025408Y006409D02*
X025408Y007591D01*
X023833Y007591D01*
X023833Y008378D01*
X025408Y008378D01*
X025408Y007591D01*
X025408Y008378D02*
X025408Y008969D01*
X022259Y008969D01*
X014683Y006055D02*
X014548Y005965D01*
X014683Y005875D01*
X014548Y005875D02*
X014548Y006145D01*
X014433Y006145D02*
X014253Y006145D01*
X014253Y006010D01*
X014343Y006055D01*
X014388Y006055D01*
X014433Y006010D01*
X014433Y005920D01*
X014388Y005875D01*
X014298Y005875D01*
X014253Y005920D01*
X014138Y005875D02*
X013958Y005875D01*
X014138Y006055D01*
X014138Y006100D01*
X014093Y006145D01*
X014003Y006145D01*
X013958Y006100D01*
X016365Y014925D02*
X020302Y014925D01*
X020302Y018075D01*
X019711Y018075D01*
X019711Y016500D01*
X018924Y016500D01*
X018924Y018075D01*
X019711Y018075D01*
X018924Y018075D02*
X017743Y018075D01*
X017743Y016500D01*
X016955Y016500D01*
X016955Y018075D01*
X017743Y018075D01*
X016955Y018075D02*
X016365Y018075D01*
X016365Y014925D01*
M02*
