G75*
%MOIN*%
%OFA0B0*%
%FSLAX24Y24*%
%IPPOS*%
%LPD*%
%AMOC8*
5,1,8,0,0,1.08239X$1,22.5*
%
%ADD10C,0.0000*%
%ADD11C,0.0520*%
%ADD12C,0.0740*%
%ADD13C,0.0650*%
%ADD14C,0.0700*%
D10*
X004833Y003500D02*
X004833Y014496D01*
X028203Y014496D01*
X028203Y003500D01*
X004833Y003500D01*
X005189Y004250D02*
X005191Y004289D01*
X005197Y004328D01*
X005207Y004366D01*
X005220Y004403D01*
X005237Y004438D01*
X005257Y004472D01*
X005281Y004503D01*
X005308Y004532D01*
X005337Y004558D01*
X005369Y004581D01*
X005403Y004601D01*
X005439Y004617D01*
X005476Y004629D01*
X005515Y004638D01*
X005554Y004643D01*
X005593Y004644D01*
X005632Y004641D01*
X005671Y004634D01*
X005708Y004623D01*
X005745Y004609D01*
X005780Y004591D01*
X005813Y004570D01*
X005844Y004545D01*
X005872Y004518D01*
X005897Y004488D01*
X005919Y004455D01*
X005938Y004421D01*
X005953Y004385D01*
X005965Y004347D01*
X005973Y004309D01*
X005977Y004270D01*
X005977Y004230D01*
X005973Y004191D01*
X005965Y004153D01*
X005953Y004115D01*
X005938Y004079D01*
X005919Y004045D01*
X005897Y004012D01*
X005872Y003982D01*
X005844Y003955D01*
X005813Y003930D01*
X005780Y003909D01*
X005745Y003891D01*
X005708Y003877D01*
X005671Y003866D01*
X005632Y003859D01*
X005593Y003856D01*
X005554Y003857D01*
X005515Y003862D01*
X005476Y003871D01*
X005439Y003883D01*
X005403Y003899D01*
X005369Y003919D01*
X005337Y003942D01*
X005308Y003968D01*
X005281Y003997D01*
X005257Y004028D01*
X005237Y004062D01*
X005220Y004097D01*
X005207Y004134D01*
X005197Y004172D01*
X005191Y004211D01*
X005189Y004250D01*
X005189Y013750D02*
X005191Y013789D01*
X005197Y013828D01*
X005207Y013866D01*
X005220Y013903D01*
X005237Y013938D01*
X005257Y013972D01*
X005281Y014003D01*
X005308Y014032D01*
X005337Y014058D01*
X005369Y014081D01*
X005403Y014101D01*
X005439Y014117D01*
X005476Y014129D01*
X005515Y014138D01*
X005554Y014143D01*
X005593Y014144D01*
X005632Y014141D01*
X005671Y014134D01*
X005708Y014123D01*
X005745Y014109D01*
X005780Y014091D01*
X005813Y014070D01*
X005844Y014045D01*
X005872Y014018D01*
X005897Y013988D01*
X005919Y013955D01*
X005938Y013921D01*
X005953Y013885D01*
X005965Y013847D01*
X005973Y013809D01*
X005977Y013770D01*
X005977Y013730D01*
X005973Y013691D01*
X005965Y013653D01*
X005953Y013615D01*
X005938Y013579D01*
X005919Y013545D01*
X005897Y013512D01*
X005872Y013482D01*
X005844Y013455D01*
X005813Y013430D01*
X005780Y013409D01*
X005745Y013391D01*
X005708Y013377D01*
X005671Y013366D01*
X005632Y013359D01*
X005593Y013356D01*
X005554Y013357D01*
X005515Y013362D01*
X005476Y013371D01*
X005439Y013383D01*
X005403Y013399D01*
X005369Y013419D01*
X005337Y013442D01*
X005308Y013468D01*
X005281Y013497D01*
X005257Y013528D01*
X005237Y013562D01*
X005220Y013597D01*
X005207Y013634D01*
X005197Y013672D01*
X005191Y013711D01*
X005189Y013750D01*
X027189Y013750D02*
X027191Y013789D01*
X027197Y013828D01*
X027207Y013866D01*
X027220Y013903D01*
X027237Y013938D01*
X027257Y013972D01*
X027281Y014003D01*
X027308Y014032D01*
X027337Y014058D01*
X027369Y014081D01*
X027403Y014101D01*
X027439Y014117D01*
X027476Y014129D01*
X027515Y014138D01*
X027554Y014143D01*
X027593Y014144D01*
X027632Y014141D01*
X027671Y014134D01*
X027708Y014123D01*
X027745Y014109D01*
X027780Y014091D01*
X027813Y014070D01*
X027844Y014045D01*
X027872Y014018D01*
X027897Y013988D01*
X027919Y013955D01*
X027938Y013921D01*
X027953Y013885D01*
X027965Y013847D01*
X027973Y013809D01*
X027977Y013770D01*
X027977Y013730D01*
X027973Y013691D01*
X027965Y013653D01*
X027953Y013615D01*
X027938Y013579D01*
X027919Y013545D01*
X027897Y013512D01*
X027872Y013482D01*
X027844Y013455D01*
X027813Y013430D01*
X027780Y013409D01*
X027745Y013391D01*
X027708Y013377D01*
X027671Y013366D01*
X027632Y013359D01*
X027593Y013356D01*
X027554Y013357D01*
X027515Y013362D01*
X027476Y013371D01*
X027439Y013383D01*
X027403Y013399D01*
X027369Y013419D01*
X027337Y013442D01*
X027308Y013468D01*
X027281Y013497D01*
X027257Y013528D01*
X027237Y013562D01*
X027220Y013597D01*
X027207Y013634D01*
X027197Y013672D01*
X027191Y013711D01*
X027189Y013750D01*
X027189Y004250D02*
X027191Y004289D01*
X027197Y004328D01*
X027207Y004366D01*
X027220Y004403D01*
X027237Y004438D01*
X027257Y004472D01*
X027281Y004503D01*
X027308Y004532D01*
X027337Y004558D01*
X027369Y004581D01*
X027403Y004601D01*
X027439Y004617D01*
X027476Y004629D01*
X027515Y004638D01*
X027554Y004643D01*
X027593Y004644D01*
X027632Y004641D01*
X027671Y004634D01*
X027708Y004623D01*
X027745Y004609D01*
X027780Y004591D01*
X027813Y004570D01*
X027844Y004545D01*
X027872Y004518D01*
X027897Y004488D01*
X027919Y004455D01*
X027938Y004421D01*
X027953Y004385D01*
X027965Y004347D01*
X027973Y004309D01*
X027977Y004270D01*
X027977Y004230D01*
X027973Y004191D01*
X027965Y004153D01*
X027953Y004115D01*
X027938Y004079D01*
X027919Y004045D01*
X027897Y004012D01*
X027872Y003982D01*
X027844Y003955D01*
X027813Y003930D01*
X027780Y003909D01*
X027745Y003891D01*
X027708Y003877D01*
X027671Y003866D01*
X027632Y003859D01*
X027593Y003856D01*
X027554Y003857D01*
X027515Y003862D01*
X027476Y003871D01*
X027439Y003883D01*
X027403Y003899D01*
X027369Y003919D01*
X027337Y003942D01*
X027308Y003968D01*
X027281Y003997D01*
X027257Y004028D01*
X027237Y004062D01*
X027220Y004097D01*
X027207Y004134D01*
X027197Y004172D01*
X027191Y004211D01*
X027189Y004250D01*
D11*
X019333Y009000D03*
X019333Y010000D03*
X019333Y011000D03*
X019333Y012000D03*
X016333Y012000D03*
X016333Y011000D03*
X016333Y010000D03*
X016333Y009000D03*
D12*
X015333Y008000D03*
X013833Y006000D03*
X009833Y006000D03*
X009833Y010000D03*
X013833Y010000D03*
X013833Y012000D03*
X015333Y012000D03*
X009833Y012000D03*
D13*
X011083Y008500D03*
X011083Y007500D03*
X021333Y007000D03*
X022833Y007000D03*
X022833Y006000D03*
X021333Y006000D03*
X021333Y011500D03*
X022833Y011500D03*
X022833Y012500D03*
X021333Y012500D03*
D14*
X025377Y012484D02*
X026077Y012484D01*
X026077Y010516D02*
X025377Y010516D01*
X025377Y007984D02*
X026077Y007984D01*
X026077Y006016D02*
X025377Y006016D01*
X018818Y006544D02*
X018818Y007244D01*
X016849Y007244D02*
X016849Y006544D01*
X007790Y006016D02*
X007090Y006016D01*
X007090Y007984D02*
X007790Y007984D01*
X007790Y010516D02*
X007090Y010516D01*
X007090Y012484D02*
X007790Y012484D01*
M02*
