G75*
%MOIN*%
%OFA0B0*%
%FSLAX24Y24*%
%IPPOS*%
%LPD*%
%AMOC8*
5,1,8,0,0,1.08239X$1,22.5*
%
%ADD10C,0.0060*%
%ADD11C,0.0080*%
%ADD12C,0.0050*%
D10*
X016683Y008500D02*
X018983Y008500D01*
X018983Y012500D01*
X018233Y012500D01*
X018231Y012461D01*
X018225Y012422D01*
X018216Y012384D01*
X018203Y012347D01*
X018186Y012311D01*
X018166Y012278D01*
X018142Y012246D01*
X018116Y012217D01*
X018087Y012191D01*
X018055Y012167D01*
X018022Y012147D01*
X017986Y012130D01*
X017949Y012117D01*
X017911Y012108D01*
X017872Y012102D01*
X017833Y012100D01*
X017794Y012102D01*
X017755Y012108D01*
X017717Y012117D01*
X017680Y012130D01*
X017644Y012147D01*
X017611Y012167D01*
X017579Y012191D01*
X017550Y012217D01*
X017524Y012246D01*
X017500Y012278D01*
X017480Y012311D01*
X017463Y012347D01*
X017450Y012384D01*
X017441Y012422D01*
X017435Y012461D01*
X017433Y012500D01*
X016683Y012500D01*
X016683Y008500D01*
D11*
X015806Y008760D02*
X014861Y008760D01*
X014861Y011240D01*
X015806Y011240D01*
X015806Y008760D01*
X013073Y009528D02*
X010593Y009528D01*
X010593Y010472D01*
X013073Y010472D01*
X013073Y009528D01*
X011583Y009000D02*
X010583Y009000D01*
X010583Y007000D01*
X011583Y007000D01*
X011583Y009000D01*
X011333Y008000D02*
X010833Y008000D01*
X010593Y006472D02*
X013073Y006472D01*
X013073Y005528D01*
X010593Y005528D01*
X010593Y006472D01*
X010593Y011528D02*
X013073Y011528D01*
X013073Y012472D01*
X010593Y012472D01*
X010593Y011528D01*
X020833Y011000D02*
X020833Y013000D01*
X021833Y013000D01*
X021833Y011000D01*
X020833Y011000D01*
X022333Y011000D02*
X022333Y013000D01*
X023333Y013000D01*
X023333Y011000D01*
X022333Y011000D01*
X022583Y012000D02*
X023083Y012000D01*
X021583Y012000D02*
X021083Y012000D01*
X020833Y007500D02*
X021833Y007500D01*
X021833Y005500D01*
X020833Y005500D01*
X020833Y007500D01*
X022333Y007500D02*
X023333Y007500D01*
X023333Y005500D01*
X022333Y005500D01*
X022333Y007500D01*
X022583Y006500D02*
X023083Y006500D01*
X021583Y006500D02*
X021083Y006500D01*
D12*
X006259Y005622D02*
X006259Y005031D01*
X009408Y005031D01*
X009408Y008969D01*
X006259Y008969D01*
X006259Y008378D01*
X007833Y008378D01*
X007833Y007591D01*
X006259Y007591D01*
X006259Y008378D01*
X006259Y007591D02*
X006259Y006409D01*
X007833Y006409D01*
X007833Y005622D01*
X006259Y005622D01*
X006259Y006409D01*
X010958Y006100D02*
X011003Y006145D01*
X011093Y006145D01*
X011138Y006100D01*
X011138Y006055D01*
X010958Y005875D01*
X011138Y005875D01*
X011253Y005920D02*
X011298Y005875D01*
X011388Y005875D01*
X011433Y005920D01*
X011433Y006010D01*
X011388Y006055D01*
X011343Y006055D01*
X011253Y006010D01*
X011253Y006145D01*
X011433Y006145D01*
X011548Y006145D02*
X011548Y005875D01*
X011548Y005965D02*
X011683Y005875D01*
X011548Y005965D02*
X011683Y006055D01*
X015865Y004925D02*
X015865Y008075D01*
X016455Y008075D01*
X016455Y006500D01*
X017243Y006500D01*
X017243Y008075D01*
X018424Y008075D01*
X018424Y006500D01*
X019211Y006500D01*
X019211Y008075D01*
X019802Y008075D01*
X019802Y004925D01*
X015865Y004925D01*
X016455Y008075D02*
X017243Y008075D01*
X018424Y008075D02*
X019211Y008075D01*
X015478Y010090D02*
X015298Y010270D01*
X015253Y010270D01*
X015208Y010225D01*
X015208Y010135D01*
X015253Y010090D01*
X015478Y010090D02*
X015478Y010270D01*
X015433Y010385D02*
X015478Y010430D01*
X015478Y010520D01*
X015433Y010565D01*
X015343Y010565D01*
X015298Y010520D01*
X015298Y010475D01*
X015343Y010385D01*
X015208Y010385D01*
X015208Y010565D01*
X015208Y010679D02*
X015478Y010679D01*
X015388Y010679D02*
X015298Y010815D01*
X015388Y010679D02*
X015478Y010815D01*
X011683Y010055D02*
X011548Y009965D01*
X011683Y009875D01*
X011548Y009875D02*
X011548Y010145D01*
X011433Y010145D02*
X011253Y010145D01*
X011253Y010010D01*
X011343Y010055D01*
X011388Y010055D01*
X011433Y010010D01*
X011433Y009920D01*
X011388Y009875D01*
X011298Y009875D01*
X011253Y009920D01*
X011138Y009875D02*
X010958Y009875D01*
X011138Y010055D01*
X011138Y010100D01*
X011093Y010145D01*
X011003Y010145D01*
X010958Y010100D01*
X009408Y009531D02*
X009408Y013469D01*
X006259Y013469D01*
X006259Y012878D01*
X007833Y012878D01*
X007833Y012091D01*
X006259Y012091D01*
X006259Y012878D01*
X006259Y012091D02*
X006259Y010909D01*
X007833Y010909D01*
X007833Y010122D01*
X006259Y010122D01*
X006259Y010909D01*
X006259Y010122D02*
X006259Y009531D01*
X009408Y009531D01*
X010958Y011875D02*
X011138Y012055D01*
X011138Y012100D01*
X011093Y012145D01*
X011003Y012145D01*
X010958Y012100D01*
X010958Y011875D02*
X011138Y011875D01*
X011253Y011920D02*
X011298Y011875D01*
X011388Y011875D01*
X011433Y011920D01*
X011433Y012010D01*
X011388Y012055D01*
X011343Y012055D01*
X011253Y012010D01*
X011253Y012145D01*
X011433Y012145D01*
X011548Y012145D02*
X011548Y011875D01*
X011548Y011965D02*
X011683Y012055D01*
X011548Y011965D02*
X011683Y011875D01*
X023759Y013469D02*
X023759Y009531D01*
X026908Y009531D01*
X026908Y010122D01*
X025333Y010122D01*
X025333Y010909D01*
X026908Y010909D01*
X026908Y010122D01*
X026908Y010909D02*
X026908Y012091D01*
X025333Y012091D01*
X025333Y012878D01*
X026908Y012878D01*
X026908Y012091D01*
X026908Y012878D02*
X026908Y013469D01*
X023759Y013469D01*
X023759Y008969D02*
X023759Y005031D01*
X026908Y005031D01*
X026908Y005622D01*
X025333Y005622D01*
X025333Y006409D01*
X026908Y006409D01*
X026908Y005622D01*
X026908Y006409D02*
X026908Y007591D01*
X025333Y007591D01*
X025333Y008378D01*
X026908Y008378D01*
X026908Y007591D01*
X026908Y008378D02*
X026908Y008969D01*
X023759Y008969D01*
M02*
