%
M48
M72
T01C0.0276
T02C0.0320
T03C0.0354
T04C0.0433
T05C0.0787
%
T01
X11083Y7500
X11083Y8500
X21333Y7000
X22833Y7000
X22833Y6000
X21333Y6000
X21333Y11500
X22833Y11500
X22833Y12500
X21333Y12500
T02
X19333Y12000
X19333Y11000
X19333Y10000
X19333Y9000
X16333Y9000
X16333Y10000
X16333Y11000
X16333Y12000
T03
X15333Y12000
X13833Y12000
X9833Y12000
X9833Y10000
X13833Y10000
X15333Y8000
X13833Y6000
X9833Y6000
T04
X7440Y6016
X7440Y7984
X7440Y10516
X7440Y12484
X16849Y6894
X18818Y6894
X25727Y6016
X25727Y7984
X25727Y10516
X25727Y12484
T05
X5583Y4250
X5583Y13750
X27583Y13750
X27583Y4250
M30
