%
M48
M72
T01C0.0276
T02C0.0320
T03C0.0354
T04C0.0433
%
T01
X12833Y7000
X12833Y8000
X13833Y15500
X13833Y16500
X15333Y16500
X15333Y15500
X21333Y15500
X22833Y15500
X22833Y16500
X21333Y16500
T02
X22333Y13000
X22333Y12000
X22333Y11000
X22333Y10000
X19333Y10000
X19333Y11000
X19333Y12000
X19333Y13000
T03
X17833Y12000
X16833Y12000
X16833Y10000
X17833Y8000
X16833Y6000
X12833Y6000
X12833Y10000
X12833Y12000
T04
X9940Y6016
X9940Y7984
X9940Y10516
X9940Y12484
X9849Y16894
X11818Y16894
X17349Y16894
X19318Y16894
X24227Y7984
X24227Y6016
M30
