G75*
%MOIN*%
%OFA0B0*%
%FSLAX24Y24*%
%IPPOS*%
%LPD*%
%AMOC8*
5,1,8,0,0,1.08239X$1,22.5*
%
%ADD10C,0.0520*%
%ADD11C,0.0740*%
%ADD12C,0.0650*%
%ADD13C,0.0700*%
%ADD14C,0.0059*%
%ADD15C,0.0500*%
D10*
X016333Y009000D03*
X016333Y010000D03*
X016333Y011000D03*
X016333Y012000D03*
X019333Y012000D03*
X019333Y011000D03*
X019333Y010000D03*
X019333Y009000D03*
D11*
X015333Y008000D03*
X013833Y006000D03*
X009833Y006000D03*
X009833Y010000D03*
X013833Y010000D03*
X013833Y012000D03*
X015333Y012000D03*
X009833Y012000D03*
D12*
X011083Y008500D03*
X011083Y007500D03*
X021333Y007000D03*
X022833Y007000D03*
X022833Y006000D03*
X021333Y006000D03*
X021333Y011500D03*
X022833Y011500D03*
X022833Y012500D03*
X021333Y012500D03*
D13*
X022833Y012500D02*
X025711Y012500D01*
X025727Y012484D01*
X025377Y012484D02*
X026077Y012484D01*
X026077Y010516D02*
X025377Y010516D01*
X025377Y007984D02*
X026077Y007984D01*
X026077Y006016D02*
X025377Y006016D01*
X025711Y006000D02*
X022833Y006000D01*
X018818Y006544D02*
X018818Y007244D01*
X016849Y007244D02*
X016849Y006544D01*
X007790Y006016D02*
X007090Y006016D01*
X007090Y007984D02*
X007790Y007984D01*
X007790Y010516D02*
X007090Y010516D01*
X007090Y012484D02*
X007790Y012484D01*
D14*
X021106Y009370D02*
X021106Y009130D01*
X021424Y009098D01*
X021458Y008991D01*
X021509Y008891D01*
X021308Y008644D01*
X021477Y008474D01*
X021725Y008676D01*
X021824Y008625D01*
X021966Y008966D01*
X021912Y008994D01*
X021866Y009032D01*
X021828Y009079D01*
X021799Y009132D01*
X021782Y009190D01*
X021776Y009250D01*
X021782Y009313D01*
X021801Y009373D01*
X021832Y009428D01*
X021874Y009475D01*
X021925Y009513D01*
X021982Y009540D01*
X022043Y009555D01*
X022106Y009557D01*
X022168Y009546D01*
X022227Y009522D01*
X022280Y009487D01*
X022324Y009442D01*
X022358Y009389D01*
X022380Y009330D01*
X022390Y009267D01*
X022387Y009204D01*
X022372Y009143D01*
X022344Y009086D01*
X022305Y009037D01*
X022257Y008996D01*
X022201Y008966D01*
X022342Y008625D01*
X022442Y008676D01*
X022689Y008474D01*
X022859Y008644D01*
X022657Y008891D01*
X022709Y008991D01*
X022743Y009098D01*
X023060Y009130D01*
X023060Y009370D01*
X022743Y009402D01*
X022709Y009509D01*
X022657Y009609D01*
X022859Y009856D01*
X022689Y010026D01*
X022442Y009824D01*
X022342Y009875D01*
X022236Y009909D01*
X022203Y010227D01*
X021963Y010227D01*
X021931Y009909D01*
X021824Y009875D01*
X021725Y009824D01*
X021477Y010026D01*
X021308Y009856D01*
X021509Y009609D01*
X021458Y009509D01*
X021424Y009402D01*
X021106Y009370D01*
X021106Y009321D02*
X021785Y009321D01*
X021777Y009263D02*
X021106Y009263D01*
X021106Y009205D02*
X021780Y009205D01*
X021794Y009148D02*
X021106Y009148D01*
X021187Y009378D02*
X021804Y009378D01*
X021839Y009436D02*
X021435Y009436D01*
X021453Y009493D02*
X021898Y009493D01*
X022026Y009551D02*
X021480Y009551D01*
X021509Y009608D02*
X022657Y009608D01*
X022687Y009551D02*
X022139Y009551D01*
X022270Y009493D02*
X022714Y009493D01*
X022732Y009436D02*
X022328Y009436D01*
X022362Y009378D02*
X022980Y009378D01*
X023060Y009321D02*
X022382Y009321D01*
X022390Y009263D02*
X023060Y009263D01*
X023060Y009205D02*
X022388Y009205D01*
X022373Y009148D02*
X023060Y009148D01*
X022740Y009090D02*
X022346Y009090D01*
X022300Y009033D02*
X022722Y009033D01*
X022700Y008975D02*
X022219Y008975D01*
X022221Y008918D02*
X022671Y008918D01*
X022683Y008860D02*
X022245Y008860D01*
X022269Y008803D02*
X022730Y008803D01*
X022777Y008745D02*
X022293Y008745D01*
X022316Y008687D02*
X022823Y008687D01*
X022845Y008630D02*
X022499Y008630D01*
X022569Y008572D02*
X022787Y008572D01*
X022730Y008515D02*
X022640Y008515D01*
X022352Y008630D02*
X022340Y008630D01*
X021898Y008803D02*
X021437Y008803D01*
X021484Y008860D02*
X021922Y008860D01*
X021946Y008918D02*
X021496Y008918D01*
X021466Y008975D02*
X021948Y008975D01*
X021866Y009033D02*
X021445Y009033D01*
X021426Y009090D02*
X021822Y009090D01*
X021874Y008745D02*
X021390Y008745D01*
X021343Y008687D02*
X021850Y008687D01*
X021826Y008630D02*
X021814Y008630D01*
X021668Y008630D02*
X021322Y008630D01*
X021379Y008572D02*
X021598Y008572D01*
X021527Y008515D02*
X021437Y008515D01*
X021463Y009666D02*
X022704Y009666D01*
X022751Y009723D02*
X021416Y009723D01*
X021369Y009781D02*
X022798Y009781D01*
X022845Y009839D02*
X022460Y009839D01*
X022413Y009839D02*
X021753Y009839D01*
X021707Y009839D02*
X021322Y009839D01*
X021348Y009896D02*
X021636Y009896D01*
X021565Y009954D02*
X021405Y009954D01*
X021463Y010011D02*
X021495Y010011D01*
X021890Y009896D02*
X022277Y009896D01*
X022231Y009954D02*
X021936Y009954D01*
X021941Y010011D02*
X022225Y010011D01*
X022219Y010069D02*
X021947Y010069D01*
X021953Y010126D02*
X022214Y010126D01*
X022208Y010184D02*
X021959Y010184D01*
X022531Y009896D02*
X022819Y009896D01*
X022761Y009954D02*
X022601Y009954D01*
X022672Y010011D02*
X022704Y010011D01*
D15*
X026540Y004150D02*
X006627Y004150D01*
X006627Y004387D01*
X006556Y004653D01*
X006419Y004891D01*
X006224Y005085D01*
X005986Y005223D01*
X005721Y005294D01*
X005483Y005294D01*
X005483Y012706D01*
X005721Y012706D01*
X005986Y012777D01*
X006224Y012915D01*
X006419Y013109D01*
X006556Y013347D01*
X006627Y013613D01*
X006627Y013846D01*
X026540Y013846D01*
X026540Y013613D01*
X026611Y013347D01*
X026748Y013109D01*
X026942Y012915D01*
X027180Y012777D01*
X027446Y012706D01*
X027553Y012706D01*
X027553Y005294D01*
X027446Y005294D01*
X027180Y005223D01*
X026942Y005085D01*
X026748Y004891D01*
X026611Y004653D01*
X026540Y004387D01*
X026540Y004150D01*
X026559Y004458D02*
X020423Y004458D01*
X020286Y004322D02*
X021110Y005145D01*
X021159Y005125D01*
X021507Y005125D01*
X021688Y005200D01*
X022413Y005200D01*
X022654Y005100D01*
X025890Y005100D01*
X025928Y005116D01*
X026256Y005116D01*
X026587Y005253D01*
X026840Y005506D01*
X026977Y005837D01*
X026977Y006195D01*
X026840Y006526D01*
X026587Y006779D01*
X026256Y006916D01*
X025198Y006916D01*
X025160Y006900D01*
X023501Y006900D01*
X023508Y006956D01*
X023508Y007000D01*
X023508Y007044D01*
X023497Y007132D01*
X023474Y007217D01*
X023440Y007299D01*
X023396Y007376D01*
X023342Y007446D01*
X023279Y007509D01*
X023209Y007562D01*
X023133Y007607D01*
X023051Y007641D01*
X022965Y007663D01*
X022878Y007675D01*
X022833Y007675D01*
X022789Y007675D01*
X022701Y007663D01*
X022616Y007641D01*
X022534Y007607D01*
X022458Y007562D01*
X022387Y007509D01*
X022325Y007446D01*
X022271Y007376D01*
X022227Y007299D01*
X022193Y007217D01*
X022170Y007132D01*
X022158Y007044D01*
X022158Y007000D01*
X022833Y007000D01*
X022158Y007000D01*
X022158Y006956D01*
X022170Y006868D01*
X022188Y006800D01*
X021979Y006800D01*
X021997Y006868D01*
X022008Y006956D01*
X022008Y007000D01*
X022008Y007044D01*
X021997Y007132D01*
X021974Y007217D01*
X021940Y007299D01*
X021896Y007376D01*
X021842Y007446D01*
X021779Y007509D01*
X021709Y007562D01*
X021633Y007607D01*
X021551Y007641D01*
X021465Y007663D01*
X021378Y007675D01*
X021333Y007675D01*
X021289Y007675D01*
X021201Y007663D01*
X021116Y007641D01*
X021034Y007607D01*
X020958Y007562D01*
X020887Y007509D01*
X020825Y007446D01*
X020771Y007376D01*
X020727Y007299D01*
X020693Y007217D01*
X020670Y007132D01*
X020658Y007044D01*
X020658Y007000D01*
X021333Y007000D01*
X020658Y007000D01*
X020658Y006956D01*
X020670Y006868D01*
X020688Y006800D01*
X020674Y006800D01*
X020380Y006678D01*
X020155Y006453D01*
X019502Y005800D01*
X017378Y005800D01*
X017612Y006034D01*
X017749Y006365D01*
X017749Y007200D01*
X017992Y007200D01*
X018118Y007252D01*
X018118Y006894D01*
X018818Y006894D01*
X019518Y006894D01*
X019518Y007290D01*
X019506Y007381D01*
X019482Y007469D01*
X019447Y007554D01*
X019401Y007633D01*
X019345Y007706D01*
X019280Y007771D01*
X019207Y007827D01*
X019128Y007873D01*
X019043Y007908D01*
X018954Y007932D01*
X018903Y007938D01*
X019012Y008047D01*
X019086Y008226D01*
X019172Y008190D01*
X019494Y008190D01*
X019792Y008313D01*
X020020Y008541D01*
X020143Y008839D01*
X020143Y009161D01*
X020020Y009459D01*
X019979Y009500D01*
X020020Y009541D01*
X020143Y009839D01*
X020143Y010161D01*
X020107Y010248D01*
X020286Y010322D01*
X020786Y010822D01*
X020926Y010962D01*
X020958Y010938D01*
X021034Y010893D01*
X021116Y010859D01*
X021201Y010837D01*
X021289Y010825D01*
X021333Y010825D01*
X021333Y011500D01*
X021333Y011500D01*
X021333Y010825D01*
X021378Y010825D01*
X021465Y010837D01*
X021551Y010859D01*
X021633Y010893D01*
X021709Y010938D01*
X021779Y010991D01*
X021842Y011054D01*
X021896Y011124D01*
X021940Y011201D01*
X021974Y011283D01*
X021997Y011368D01*
X022008Y011456D01*
X022008Y011500D01*
X022008Y011544D01*
X021997Y011632D01*
X021979Y011700D01*
X022188Y011700D01*
X022170Y011632D01*
X022158Y011544D01*
X022158Y011500D01*
X022833Y011500D01*
X022158Y011500D01*
X022158Y011456D01*
X022170Y011368D01*
X022193Y011283D01*
X022227Y011201D01*
X022271Y011124D01*
X022325Y011054D01*
X022387Y010991D01*
X022458Y010938D01*
X022534Y010893D01*
X022616Y010859D01*
X022701Y010837D01*
X022789Y010825D01*
X022833Y010825D01*
X022833Y011500D01*
X022833Y011500D01*
X022833Y011500D01*
X022833Y010825D01*
X022878Y010825D01*
X022965Y010837D01*
X023051Y010859D01*
X023133Y010893D01*
X023209Y010938D01*
X023279Y010991D01*
X023342Y011054D01*
X023396Y011124D01*
X023440Y011201D01*
X023474Y011283D01*
X023497Y011368D01*
X023508Y011456D01*
X023508Y011500D01*
X023508Y011544D01*
X023501Y011600D01*
X025160Y011600D01*
X025198Y011584D01*
X026256Y011584D01*
X026587Y011721D01*
X026840Y011974D01*
X026977Y012305D01*
X026977Y012663D01*
X026840Y012994D01*
X026587Y013247D01*
X026256Y013384D01*
X025928Y013384D01*
X025890Y013400D01*
X022654Y013400D01*
X022413Y013300D01*
X021688Y013300D01*
X021507Y013375D01*
X021159Y013375D01*
X020978Y013300D01*
X020674Y013300D01*
X020380Y013178D01*
X019880Y012678D01*
X019840Y012638D01*
X019792Y012687D01*
X019494Y012810D01*
X019172Y012810D01*
X018875Y012687D01*
X018647Y012459D01*
X018523Y012161D01*
X018523Y011839D01*
X018647Y011541D01*
X018688Y011500D01*
X018647Y011459D01*
X018523Y011161D01*
X018523Y010839D01*
X018559Y010752D01*
X018380Y010678D01*
X018133Y010431D01*
X018133Y012659D01*
X018012Y012953D01*
X017512Y013453D01*
X017286Y013678D01*
X016992Y013800D01*
X013174Y013800D01*
X012880Y013678D01*
X012155Y012953D01*
X012033Y012659D01*
X012033Y005341D01*
X012155Y005047D01*
X012655Y004547D01*
X012880Y004322D01*
X013174Y004200D01*
X019992Y004200D01*
X020286Y004322D01*
X019833Y005000D02*
X020833Y006000D01*
X021333Y006000D01*
X022833Y006000D01*
X022833Y007000D02*
X022833Y007000D01*
X022833Y007675D01*
X022833Y007000D01*
X022833Y007000D01*
X023508Y007000D01*
X022833Y007000D01*
X022833Y007000D01*
X022159Y006951D02*
X022008Y006951D01*
X022008Y007000D02*
X021333Y007000D01*
X021333Y007000D01*
X021333Y007675D01*
X021333Y007000D01*
X021333Y007000D01*
X022008Y007000D01*
X021333Y007000D02*
X021333Y007000D01*
X020659Y006951D02*
X019518Y006951D01*
X019518Y006894D02*
X018818Y006894D01*
X018818Y006894D01*
X018818Y005844D01*
X018863Y005844D01*
X018954Y005856D01*
X019043Y005879D01*
X019128Y005915D01*
X019207Y005960D01*
X019280Y006016D01*
X019345Y006081D01*
X019401Y006154D01*
X019447Y006233D01*
X019482Y006318D01*
X019506Y006407D01*
X019518Y006498D01*
X019518Y006894D01*
X019512Y006452D02*
X020154Y006452D01*
X019655Y005954D02*
X019195Y005954D01*
X018818Y005954D02*
X018818Y005954D01*
X018818Y005844D02*
X018818Y006894D01*
X018818Y006894D01*
X018818Y006894D01*
X018118Y006894D01*
X018118Y006498D01*
X018130Y006407D01*
X018153Y006318D01*
X018188Y006233D01*
X018234Y006154D01*
X018290Y006081D01*
X018355Y006016D01*
X018428Y005960D01*
X018507Y005915D01*
X018592Y005879D01*
X018681Y005856D01*
X018772Y005844D01*
X018818Y005844D01*
X018440Y005954D02*
X017532Y005954D01*
X017749Y006452D02*
X018124Y006452D01*
X018818Y006452D02*
X018818Y006452D01*
X018118Y006951D02*
X017749Y006951D01*
X016849Y006894D02*
X016849Y007484D01*
X016849Y007516D01*
X017333Y008000D01*
X017833Y008000D01*
X018333Y008500D01*
X018333Y009500D01*
X018833Y010000D01*
X019333Y010000D01*
X020143Y009942D02*
X020728Y009942D01*
X020728Y009971D02*
X020728Y009885D01*
X020721Y009814D01*
X020676Y009759D01*
X020615Y009698D01*
X020604Y009670D01*
X020584Y009647D01*
X020560Y009565D01*
X020527Y009485D01*
X020527Y009455D01*
X020518Y009426D01*
X020527Y009341D01*
X020527Y009159D01*
X020518Y009074D01*
X020527Y009045D01*
X020527Y009015D01*
X020560Y008935D01*
X020584Y008853D01*
X020604Y008830D01*
X020615Y008802D01*
X020676Y008741D01*
X020721Y008686D01*
X020728Y008615D01*
X020728Y008529D01*
X020740Y008501D01*
X020743Y008471D01*
X020784Y008395D01*
X020816Y008316D01*
X020838Y008294D01*
X020852Y008268D01*
X020919Y008213D01*
X021047Y008085D01*
X021101Y008019D01*
X021128Y008004D01*
X021149Y007983D01*
X021228Y007950D01*
X021304Y007910D01*
X021334Y007906D01*
X021362Y007895D01*
X021448Y007895D01*
X021533Y007886D01*
X021562Y007895D01*
X021593Y007895D01*
X021672Y007928D01*
X021754Y007952D01*
X021778Y007972D01*
X021806Y007983D01*
X021863Y008040D01*
X021891Y008038D01*
X021915Y008045D01*
X021940Y008045D01*
X022024Y008080D01*
X022083Y008099D01*
X022143Y008080D01*
X022227Y008045D01*
X022252Y008045D01*
X022276Y008038D01*
X022304Y008040D01*
X022361Y007983D01*
X022389Y007972D01*
X022412Y007952D01*
X022495Y007928D01*
X022574Y007895D01*
X022604Y007895D01*
X022633Y007886D01*
X022719Y007895D01*
X022805Y007895D01*
X022833Y007906D01*
X022863Y007910D01*
X022938Y007950D01*
X023018Y007983D01*
X023039Y008004D01*
X023066Y008019D01*
X023120Y008085D01*
X023248Y008213D01*
X023314Y008268D01*
X023329Y008294D01*
X023350Y008316D01*
X023383Y008395D01*
X023424Y008471D01*
X023427Y008501D01*
X023438Y008529D01*
X023438Y008615D01*
X023446Y008686D01*
X023491Y008741D01*
X023552Y008802D01*
X023563Y008830D01*
X023582Y008853D01*
X023607Y008935D01*
X023640Y009015D01*
X023640Y009045D01*
X023648Y009074D01*
X023640Y009159D01*
X023640Y009341D01*
X023648Y009426D01*
X023640Y009455D01*
X023640Y009485D01*
X023607Y009565D01*
X023582Y009647D01*
X023563Y009670D01*
X023552Y009698D01*
X023491Y009759D01*
X023446Y009814D01*
X023438Y009885D01*
X023438Y009971D01*
X023427Y009999D01*
X023424Y010029D01*
X023383Y010105D01*
X023350Y010184D01*
X023329Y010206D01*
X023314Y010232D01*
X023248Y010287D01*
X023120Y010415D01*
X023066Y010481D01*
X023039Y010496D01*
X023018Y010517D01*
X022938Y010550D01*
X022863Y010590D01*
X022833Y010594D01*
X022805Y010605D01*
X022719Y010605D01*
X022648Y010612D01*
X022592Y010657D01*
X022532Y010718D01*
X022504Y010730D01*
X022480Y010749D01*
X022398Y010774D01*
X022319Y010806D01*
X022288Y010806D01*
X022259Y010815D01*
X022174Y010806D01*
X021993Y010806D01*
X021907Y010815D01*
X021878Y010806D01*
X021848Y010806D01*
X021769Y010774D01*
X021686Y010749D01*
X021663Y010730D01*
X021635Y010718D01*
X021574Y010657D01*
X021519Y010612D01*
X021448Y010605D01*
X021362Y010605D01*
X021334Y010594D01*
X021304Y010590D01*
X021228Y010550D01*
X021149Y010517D01*
X021128Y010496D01*
X021101Y010481D01*
X021047Y010415D01*
X020919Y010287D01*
X020852Y010232D01*
X020838Y010206D01*
X020816Y010184D01*
X020784Y010105D01*
X020743Y010029D01*
X020740Y009999D01*
X020728Y009971D01*
X020523Y009443D02*
X020027Y009443D01*
X020143Y008945D02*
X020556Y008945D01*
X020756Y008446D02*
X019925Y008446D01*
X018912Y007948D02*
X021233Y007948D01*
X021738Y007948D02*
X022429Y007948D01*
X022933Y007948D02*
X024677Y007948D01*
X024677Y007938D02*
X024689Y007847D01*
X024713Y007759D01*
X024748Y007674D01*
X024794Y007595D01*
X024850Y007522D01*
X024915Y007457D01*
X024987Y007401D01*
X025067Y007355D01*
X025152Y007320D01*
X025240Y007296D01*
X025331Y007284D01*
X025727Y007284D01*
X026123Y007284D01*
X026214Y007296D01*
X026303Y007320D01*
X026387Y007355D01*
X026467Y007401D01*
X026540Y007457D01*
X026604Y007522D01*
X026660Y007595D01*
X026706Y007674D01*
X026741Y007759D01*
X026765Y007847D01*
X026777Y007938D01*
X026777Y007984D01*
X025727Y007984D01*
X025727Y007984D01*
X025727Y007284D01*
X025727Y007984D01*
X024677Y007984D01*
X024677Y007938D01*
X024677Y007984D02*
X025727Y007984D01*
X025727Y007984D01*
X025727Y007984D01*
X026777Y007984D01*
X026777Y008030D01*
X026765Y008121D01*
X026741Y008210D01*
X026706Y008295D01*
X026660Y008374D01*
X026604Y008447D01*
X026540Y008512D01*
X026467Y008568D01*
X026387Y008613D01*
X026303Y008649D01*
X026214Y008672D01*
X026123Y008684D01*
X025727Y008684D01*
X025331Y008684D01*
X025240Y008672D01*
X025152Y008649D01*
X025067Y008613D01*
X024987Y008568D01*
X024915Y008512D01*
X024850Y008447D01*
X024794Y008374D01*
X024748Y008295D01*
X024713Y008210D01*
X024689Y008121D01*
X024677Y008030D01*
X024677Y007984D01*
X024849Y008446D02*
X023411Y008446D01*
X023611Y008945D02*
X027553Y008945D01*
X027553Y009443D02*
X023643Y009443D01*
X023438Y009942D02*
X024976Y009942D01*
X024987Y009932D02*
X025067Y009887D01*
X025152Y009851D01*
X025240Y009828D01*
X025331Y009816D01*
X025727Y009816D01*
X025727Y010516D01*
X025727Y011216D01*
X025331Y011216D01*
X025240Y011204D01*
X025152Y011180D01*
X025067Y011145D01*
X024987Y011099D01*
X024915Y011043D01*
X024850Y010978D01*
X024794Y010905D01*
X024748Y010826D01*
X024713Y010741D01*
X024689Y010653D01*
X024677Y010562D01*
X024677Y010516D01*
X025727Y010516D01*
X025727Y010516D01*
X025727Y011216D01*
X026123Y011216D01*
X026214Y011204D01*
X026303Y011180D01*
X026387Y011145D01*
X026467Y011099D01*
X026540Y011043D01*
X026604Y010978D01*
X026660Y010905D01*
X026706Y010826D01*
X026741Y010741D01*
X026765Y010653D01*
X026777Y010562D01*
X026777Y010516D01*
X025727Y010516D01*
X025727Y010516D01*
X025727Y010516D01*
X024677Y010516D01*
X024677Y010470D01*
X024689Y010379D01*
X024713Y010290D01*
X024748Y010205D01*
X024794Y010126D01*
X024850Y010053D01*
X024915Y009988D01*
X024987Y009932D01*
X024681Y010440D02*
X023099Y010440D01*
X023210Y010939D02*
X024819Y010939D01*
X025727Y010939D02*
X025727Y010939D01*
X026635Y010939D02*
X027553Y010939D01*
X027553Y011437D02*
X023506Y011437D01*
X023508Y011500D02*
X022833Y011500D01*
X023508Y011500D01*
X022833Y011500D02*
X022833Y011500D01*
X022833Y011437D02*
X022833Y011437D01*
X022161Y011437D02*
X022006Y011437D01*
X022008Y011500D02*
X021333Y011500D01*
X022008Y011500D01*
X021333Y011500D02*
X021333Y011500D01*
X021333Y011437D02*
X021333Y011437D01*
X021333Y010939D02*
X021333Y010939D01*
X021710Y010939D02*
X022456Y010939D01*
X022833Y010939D02*
X022833Y010939D01*
X021068Y010440D02*
X020405Y010440D01*
X020903Y010939D02*
X020956Y010939D01*
X020333Y011500D02*
X020333Y012000D01*
X020833Y012500D01*
X021333Y012500D01*
X022833Y012500D01*
X020333Y011500D02*
X019833Y011000D01*
X019333Y011000D01*
X018523Y010939D02*
X018133Y010939D01*
X018133Y011437D02*
X018638Y011437D01*
X018523Y011936D02*
X018133Y011936D01*
X018133Y012434D02*
X018636Y012434D01*
X018020Y012933D02*
X020134Y012933D01*
X019880Y012678D02*
X019880Y012678D01*
X017534Y013431D02*
X026588Y013431D01*
X026866Y012933D02*
X026925Y012933D01*
X026977Y012434D02*
X027553Y012434D01*
X027553Y011936D02*
X026801Y011936D01*
X026777Y010516D02*
X025727Y010516D01*
X025727Y010516D01*
X025727Y009816D01*
X026123Y009816D01*
X026214Y009828D01*
X026303Y009851D01*
X026387Y009887D01*
X026467Y009932D01*
X026540Y009988D01*
X026604Y010053D01*
X026660Y010126D01*
X026706Y010205D01*
X026741Y010290D01*
X026765Y010379D01*
X026777Y010470D01*
X026777Y010516D01*
X026773Y010440D02*
X027553Y010440D01*
X027553Y009942D02*
X026479Y009942D01*
X025727Y009942D02*
X025727Y009942D01*
X025727Y010440D02*
X025727Y010440D01*
X025727Y008684D02*
X025727Y007984D01*
X025727Y007984D01*
X025727Y008684D01*
X025727Y008446D02*
X025727Y008446D01*
X026605Y008446D02*
X027553Y008446D01*
X027553Y007948D02*
X026777Y007948D01*
X026529Y007449D02*
X027553Y007449D01*
X027553Y006951D02*
X023508Y006951D01*
X023339Y007449D02*
X024925Y007449D01*
X025727Y007449D02*
X025727Y007449D01*
X025727Y007948D02*
X025727Y007948D01*
X026870Y006452D02*
X027553Y006452D01*
X027553Y005954D02*
X026977Y005954D01*
X026789Y005455D02*
X027553Y005455D01*
X026814Y004957D02*
X020921Y004957D01*
X019833Y005000D02*
X013333Y005000D01*
X012833Y005500D01*
X012833Y012500D01*
X013333Y013000D01*
X016833Y013000D01*
X017333Y012500D01*
X017333Y009500D01*
X016833Y009000D01*
X016333Y009000D01*
X016333Y008000D02*
X015333Y008000D01*
X016333Y008000D02*
X016849Y007484D01*
X019487Y007449D02*
X020828Y007449D01*
X021333Y007449D02*
X021333Y007449D01*
X021839Y007449D02*
X022328Y007449D01*
X022833Y007449D02*
X022833Y007449D01*
X018142Y010440D02*
X018133Y010440D01*
X016333Y010000D02*
X013833Y010000D01*
X013833Y006000D01*
X012033Y005954D02*
X010553Y005954D01*
X010553Y005953D02*
X010553Y006000D01*
X009833Y006000D01*
X009113Y006000D01*
X009113Y005953D01*
X009126Y005859D01*
X009150Y005768D01*
X009186Y005681D01*
X009233Y005599D01*
X009291Y005524D01*
X009358Y005458D01*
X009432Y005400D01*
X009514Y005353D01*
X009601Y005317D01*
X009693Y005292D01*
X009786Y005280D01*
X009833Y005280D01*
X009833Y006000D01*
X009833Y006000D01*
X009113Y006000D01*
X009113Y006047D01*
X009126Y006141D01*
X009150Y006232D01*
X009186Y006319D01*
X009233Y006401D01*
X009291Y006476D01*
X009358Y006542D01*
X009432Y006600D01*
X009514Y006647D01*
X009601Y006683D01*
X009693Y006708D01*
X009786Y006720D01*
X009833Y006720D01*
X009833Y006000D01*
X009833Y006000D01*
X009833Y006000D01*
X009833Y005280D01*
X009881Y005280D01*
X009974Y005292D01*
X010065Y005317D01*
X010152Y005353D01*
X010234Y005400D01*
X010309Y005458D01*
X010376Y005524D01*
X010433Y005599D01*
X010480Y005681D01*
X010517Y005768D01*
X010541Y005859D01*
X010553Y005953D01*
X010553Y006000D02*
X010553Y006047D01*
X010541Y006141D01*
X010517Y006232D01*
X010480Y006319D01*
X010433Y006401D01*
X010376Y006476D01*
X010309Y006542D01*
X010234Y006600D01*
X010152Y006647D01*
X010065Y006683D01*
X009974Y006708D01*
X009881Y006720D01*
X009833Y006720D01*
X009833Y006000D01*
X010553Y006000D01*
X009833Y006000D02*
X009833Y006000D01*
X009833Y005954D02*
X009833Y005954D01*
X009833Y006452D02*
X009833Y006452D01*
X010394Y006452D02*
X012033Y006452D01*
X011459Y006938D02*
X011383Y006893D01*
X011301Y006859D01*
X011215Y006837D01*
X011128Y006825D01*
X011083Y006825D01*
X011083Y007500D01*
X010408Y007500D01*
X011083Y007500D01*
X011083Y007500D01*
X011083Y007500D01*
X011083Y006825D01*
X011039Y006825D01*
X010951Y006837D01*
X010866Y006859D01*
X010784Y006893D01*
X010708Y006938D01*
X010637Y006991D01*
X010575Y007054D01*
X010521Y007124D01*
X010477Y007201D01*
X010443Y007283D01*
X010420Y007368D01*
X010408Y007456D01*
X010408Y007500D01*
X010408Y007544D01*
X010420Y007632D01*
X010438Y007700D01*
X010174Y007700D01*
X009880Y007822D01*
X009833Y007869D01*
X009496Y007531D01*
X009271Y007306D01*
X008977Y007184D01*
X008210Y007184D01*
X007969Y007084D01*
X006911Y007084D01*
X006580Y007221D01*
X006327Y007474D01*
X006190Y007805D01*
X006190Y008163D01*
X006327Y008494D01*
X006580Y008747D01*
X006911Y008884D01*
X007969Y008884D01*
X008210Y008784D01*
X008486Y008784D01*
X009033Y009331D01*
X009033Y009527D01*
X008913Y009817D01*
X008913Y010183D01*
X009053Y010521D01*
X009312Y010780D01*
X009650Y010920D01*
X010016Y010920D01*
X010354Y010780D01*
X010613Y010521D01*
X010753Y010183D01*
X010753Y009817D01*
X010633Y009527D01*
X010633Y009331D01*
X010665Y009300D01*
X010728Y009300D01*
X010909Y009375D01*
X011257Y009375D01*
X011579Y009242D01*
X011825Y008996D01*
X011958Y008674D01*
X011958Y008326D01*
X011825Y008004D01*
X011664Y007844D01*
X011690Y007799D01*
X011724Y007717D01*
X011747Y007632D01*
X011758Y007544D01*
X011758Y007500D01*
X011083Y007500D01*
X011083Y007500D01*
X011758Y007500D01*
X011758Y007456D01*
X011747Y007368D01*
X011724Y007283D01*
X011690Y007201D01*
X011646Y007124D01*
X011592Y007054D01*
X011529Y006991D01*
X011459Y006938D01*
X011476Y006951D02*
X012033Y006951D01*
X012033Y007449D02*
X011757Y007449D01*
X011083Y007449D02*
X011083Y007449D01*
X010409Y007449D02*
X009414Y007449D01*
X008818Y007984D02*
X007440Y007984D01*
X006352Y007449D02*
X005483Y007449D01*
X005483Y006951D02*
X010691Y006951D01*
X011083Y006951D02*
X011083Y006951D01*
X009273Y006452D02*
X008337Y006452D01*
X008317Y006478D02*
X008252Y006543D01*
X008179Y006599D01*
X008100Y006645D01*
X008015Y006680D01*
X007926Y006704D01*
X007836Y006716D01*
X007440Y006716D01*
X007440Y006016D01*
X008490Y006016D01*
X008490Y006062D01*
X008478Y006153D01*
X008454Y006241D01*
X008419Y006326D01*
X008373Y006405D01*
X008317Y006478D01*
X008490Y006016D02*
X007440Y006016D01*
X007440Y006016D01*
X007440Y006016D01*
X007440Y006716D01*
X007044Y006716D01*
X006953Y006704D01*
X006864Y006680D01*
X006779Y006645D01*
X006700Y006599D01*
X006627Y006543D01*
X006562Y006478D01*
X006506Y006405D01*
X006460Y006326D01*
X006425Y006241D01*
X006402Y006153D01*
X006390Y006062D01*
X006390Y006016D01*
X007440Y006016D01*
X007440Y005316D01*
X007836Y005316D01*
X007926Y005328D01*
X008015Y005351D01*
X008100Y005387D01*
X008179Y005432D01*
X008252Y005488D01*
X008317Y005553D01*
X008373Y005626D01*
X008419Y005705D01*
X008454Y005790D01*
X008478Y005879D01*
X008490Y005970D01*
X008490Y006016D01*
X008487Y005954D02*
X009113Y005954D01*
X009361Y005455D02*
X008209Y005455D01*
X007440Y005455D02*
X007440Y005455D01*
X007440Y005316D02*
X007044Y005316D01*
X006953Y005328D01*
X006864Y005351D01*
X006779Y005387D01*
X006700Y005432D01*
X006627Y005488D01*
X006562Y005553D01*
X006506Y005626D01*
X006460Y005705D01*
X006425Y005790D01*
X006402Y005879D01*
X006390Y005970D01*
X006390Y006016D01*
X007440Y006016D01*
X007440Y006016D01*
X007440Y006016D01*
X007440Y005316D01*
X006671Y005455D02*
X005483Y005455D01*
X005483Y005954D02*
X006392Y005954D01*
X006542Y006452D02*
X005483Y006452D01*
X007440Y006452D02*
X007440Y006452D01*
X007440Y005954D02*
X007440Y005954D01*
X006353Y004957D02*
X012245Y004957D01*
X012033Y005455D02*
X010306Y005455D01*
X009833Y005455D02*
X009833Y005455D01*
X012744Y004458D02*
X006608Y004458D01*
X006190Y007948D02*
X005483Y007948D01*
X005483Y008446D02*
X006307Y008446D01*
X005483Y008945D02*
X008646Y008945D01*
X009033Y009443D02*
X005483Y009443D01*
X005483Y009942D02*
X006688Y009942D01*
X006700Y009932D02*
X006779Y009887D01*
X006864Y009851D01*
X006953Y009828D01*
X007044Y009816D01*
X007440Y009816D01*
X007836Y009816D01*
X007926Y009828D01*
X008015Y009851D01*
X008100Y009887D01*
X008179Y009932D01*
X008252Y009988D01*
X008317Y010053D01*
X008373Y010126D01*
X008419Y010205D01*
X008454Y010290D01*
X008478Y010379D01*
X008490Y010470D01*
X008490Y010516D01*
X008490Y010562D01*
X008478Y010653D01*
X008454Y010741D01*
X008419Y010826D01*
X008373Y010905D01*
X008317Y010978D01*
X008252Y011043D01*
X008179Y011099D01*
X008100Y011145D01*
X008015Y011180D01*
X007926Y011204D01*
X007836Y011216D01*
X007440Y011216D01*
X007440Y010516D01*
X008490Y010516D01*
X007440Y010516D01*
X007440Y010516D01*
X007440Y010516D01*
X007440Y011216D01*
X007044Y011216D01*
X006953Y011204D01*
X006864Y011180D01*
X006779Y011145D01*
X006700Y011099D01*
X006627Y011043D01*
X006562Y010978D01*
X006506Y010905D01*
X006460Y010826D01*
X006425Y010741D01*
X006402Y010653D01*
X006390Y010562D01*
X006390Y010516D01*
X007440Y010516D01*
X007440Y009816D01*
X007440Y010516D01*
X007440Y010516D01*
X007440Y010516D01*
X006390Y010516D01*
X006390Y010470D01*
X006402Y010379D01*
X006425Y010290D01*
X006460Y010205D01*
X006506Y010126D01*
X006562Y010053D01*
X006627Y009988D01*
X006700Y009932D01*
X007440Y009942D02*
X007440Y009942D01*
X007440Y010440D02*
X007440Y010440D01*
X007440Y010939D02*
X007440Y010939D01*
X006532Y010939D02*
X005483Y010939D01*
X005483Y011437D02*
X008765Y011437D01*
X008655Y011547D02*
X008880Y011322D01*
X009174Y011200D01*
X009361Y011200D01*
X009650Y011080D01*
X010016Y011080D01*
X010354Y011220D01*
X010613Y011479D01*
X010753Y011817D01*
X010753Y012183D01*
X010613Y012521D01*
X010354Y012780D01*
X010016Y012920D01*
X009650Y012920D01*
X009576Y012889D01*
X009286Y013178D01*
X008992Y013300D01*
X008172Y013300D01*
X007969Y013384D01*
X006911Y013384D01*
X006580Y013247D01*
X006327Y012994D01*
X006190Y012663D01*
X006190Y012305D01*
X006327Y011974D01*
X006580Y011721D01*
X006911Y011584D01*
X007969Y011584D01*
X008248Y011700D01*
X008502Y011700D01*
X008655Y011547D01*
X009333Y012000D02*
X009833Y012000D01*
X009333Y012000D02*
X008833Y012500D01*
X007955Y012500D01*
X007440Y012484D01*
X006366Y011936D02*
X005483Y011936D01*
X005483Y012434D02*
X006190Y012434D01*
X006242Y012933D02*
X006301Y012933D01*
X006578Y013431D02*
X012633Y013431D01*
X012147Y012933D02*
X009532Y012933D01*
X010649Y012434D02*
X012033Y012434D01*
X012033Y011936D02*
X010753Y011936D01*
X010571Y011437D02*
X012033Y011437D01*
X012033Y010939D02*
X008348Y010939D01*
X008486Y010440D02*
X009020Y010440D01*
X008913Y009942D02*
X008191Y009942D01*
X009833Y010000D02*
X009833Y009000D01*
X008818Y007984D01*
X009833Y009000D02*
X010333Y008500D01*
X011083Y008500D01*
X011958Y008446D02*
X012033Y008446D01*
X012033Y007948D02*
X011768Y007948D01*
X011846Y008945D02*
X012033Y008945D01*
X012033Y009443D02*
X010633Y009443D01*
X010753Y009942D02*
X012033Y009942D01*
X012033Y010440D02*
X010647Y010440D01*
X013833Y011500D02*
X013833Y012000D01*
X013833Y011500D02*
X014333Y011000D01*
X014833Y011000D01*
X015333Y011500D01*
X015333Y012000D01*
X015333Y011500D02*
X015833Y011000D01*
X016333Y011000D01*
X006394Y010440D02*
X005483Y010440D01*
M02*
