G75*
%MOIN*%
%OFA0B0*%
%FSLAX24Y24*%
%IPPOS*%
%LPD*%
%AMOC8*
5,1,8,0,0,1.08239X$1,22.5*
%
%ADD10C,0.0520*%
%ADD11C,0.0740*%
%ADD12C,0.0650*%
%ADD13C,0.0700*%
%ADD14C,0.0500*%
D10*
X019333Y010000D03*
X019333Y011000D03*
X019333Y012000D03*
X019333Y013000D03*
X022333Y013000D03*
X022333Y012000D03*
X022333Y011000D03*
X022333Y010000D03*
D11*
X017833Y008000D03*
X016833Y006000D03*
X012833Y006000D03*
X012833Y010000D03*
X012833Y012000D03*
X016833Y012000D03*
X017833Y012000D03*
X016833Y010000D03*
D12*
X012833Y008000D03*
X012833Y007000D03*
X013833Y015500D03*
X013833Y016500D03*
X015333Y016500D03*
X015333Y015500D03*
X021333Y015500D03*
X022833Y015500D03*
X022833Y016500D03*
X021333Y016500D03*
D13*
X019318Y016544D02*
X019318Y017244D01*
X017349Y017244D02*
X017349Y016544D01*
X011818Y016544D02*
X011818Y017244D01*
X009849Y017244D02*
X009849Y016544D01*
X009590Y012484D02*
X010290Y012484D01*
X010290Y010516D02*
X009590Y010516D01*
X009590Y007984D02*
X010290Y007984D01*
X010290Y006016D02*
X009590Y006016D01*
X023877Y006016D02*
X024577Y006016D01*
X024577Y007984D02*
X023877Y007984D01*
D14*
X008483Y004650D02*
X008483Y018346D01*
X025553Y018346D01*
X025553Y004650D01*
X008483Y004650D01*
X008483Y004957D02*
X025553Y004957D01*
X024967Y005432D02*
X024887Y005387D01*
X024803Y005351D01*
X024714Y005328D01*
X024623Y005316D01*
X024227Y005316D01*
X024227Y006016D01*
X024227Y006716D01*
X023831Y006716D01*
X023740Y006704D01*
X023652Y006680D01*
X023567Y006645D01*
X023487Y006599D01*
X023415Y006543D01*
X023350Y006478D01*
X023294Y006405D01*
X023248Y006326D01*
X023213Y006241D01*
X023189Y006153D01*
X023177Y006062D01*
X023177Y006016D01*
X024227Y006016D01*
X024227Y006016D01*
X024227Y006716D01*
X024623Y006716D01*
X024714Y006704D01*
X024803Y006680D01*
X024887Y006645D01*
X024967Y006599D01*
X025040Y006543D01*
X025104Y006478D01*
X025160Y006405D01*
X025206Y006326D01*
X025241Y006241D01*
X025265Y006153D01*
X025277Y006062D01*
X025277Y006016D01*
X024227Y006016D01*
X024227Y006016D01*
X024227Y006016D01*
X023177Y006016D01*
X023177Y005970D01*
X023189Y005879D01*
X023213Y005790D01*
X023248Y005705D01*
X023294Y005626D01*
X023350Y005553D01*
X023415Y005488D01*
X023487Y005432D01*
X023567Y005387D01*
X023652Y005351D01*
X023740Y005328D01*
X023831Y005316D01*
X024227Y005316D01*
X024227Y006016D01*
X025277Y006016D01*
X025277Y005970D01*
X025265Y005879D01*
X025241Y005790D01*
X025206Y005705D01*
X025160Y005626D01*
X025104Y005553D01*
X025040Y005488D01*
X024967Y005432D01*
X024996Y005455D02*
X025553Y005455D01*
X025553Y005954D02*
X025275Y005954D01*
X025125Y006452D02*
X025553Y006452D01*
X025553Y006951D02*
X016633Y006951D01*
X016650Y006920D02*
X016633Y006913D01*
X016633Y008669D01*
X017065Y009100D01*
X017354Y009220D01*
X017613Y009479D01*
X017733Y009769D01*
X018165Y010200D01*
X018539Y010200D01*
X018523Y010161D01*
X018523Y009839D01*
X018647Y009541D01*
X018875Y009313D01*
X019172Y009190D01*
X019494Y009190D01*
X019519Y009200D01*
X020492Y009200D01*
X020786Y009322D01*
X021012Y009547D01*
X021286Y009822D01*
X021512Y010047D01*
X021523Y010075D01*
X021523Y009839D01*
X021647Y009541D01*
X021875Y009313D01*
X022172Y009190D01*
X022494Y009190D01*
X022533Y009206D01*
X022533Y008831D01*
X022502Y008800D01*
X018306Y008800D01*
X018016Y008920D01*
X017650Y008920D01*
X017312Y008780D01*
X017053Y008521D01*
X016913Y008183D01*
X016913Y007817D01*
X017053Y007479D01*
X017312Y007220D01*
X017650Y007080D01*
X018016Y007080D01*
X018306Y007200D01*
X022992Y007200D01*
X023272Y007316D01*
X023367Y007221D01*
X023698Y007084D01*
X024756Y007084D01*
X025087Y007221D01*
X025340Y007474D01*
X025477Y007805D01*
X025477Y008163D01*
X025340Y008494D01*
X025087Y008747D01*
X024756Y008884D01*
X024133Y008884D01*
X024133Y010659D01*
X024012Y010953D01*
X023786Y011178D01*
X023465Y011500D01*
X023512Y011547D01*
X024012Y012047D01*
X024133Y012341D01*
X024133Y015159D01*
X024012Y015453D01*
X023650Y015815D01*
X023575Y015996D01*
X023414Y016156D01*
X023440Y016201D01*
X023474Y016283D01*
X023497Y016368D01*
X023508Y016456D01*
X023508Y016500D01*
X023508Y016544D01*
X023497Y016632D01*
X023474Y016717D01*
X023440Y016799D01*
X023396Y016876D01*
X023342Y016946D01*
X023279Y017009D01*
X023209Y017062D01*
X023133Y017107D01*
X023051Y017141D01*
X022965Y017163D01*
X022878Y017175D01*
X022833Y017175D01*
X022789Y017175D01*
X022701Y017163D01*
X022616Y017141D01*
X022534Y017107D01*
X022458Y017062D01*
X022387Y017009D01*
X022325Y016946D01*
X022271Y016876D01*
X022227Y016799D01*
X022193Y016717D01*
X022170Y016632D01*
X022158Y016544D01*
X022158Y016500D01*
X022833Y016500D01*
X022158Y016500D01*
X022158Y016456D01*
X022170Y016368D01*
X022188Y016300D01*
X021979Y016300D01*
X021997Y016368D01*
X022008Y016456D01*
X022008Y016500D01*
X022008Y016544D01*
X021997Y016632D01*
X021974Y016717D01*
X021940Y016799D01*
X021896Y016876D01*
X021842Y016946D01*
X021779Y017009D01*
X021709Y017062D01*
X021633Y017107D01*
X021551Y017141D01*
X021465Y017163D01*
X021378Y017175D01*
X021333Y017175D01*
X021289Y017175D01*
X021201Y017163D01*
X021116Y017141D01*
X021034Y017107D01*
X020958Y017062D01*
X020887Y017009D01*
X020825Y016946D01*
X020771Y016876D01*
X020727Y016799D01*
X020693Y016717D01*
X020670Y016632D01*
X020658Y016544D01*
X020658Y016500D01*
X021333Y016500D01*
X020658Y016500D01*
X020658Y016456D01*
X020670Y016368D01*
X020688Y016300D01*
X019974Y016300D01*
X019982Y016318D01*
X020006Y016407D01*
X020018Y016498D01*
X020018Y016894D01*
X020018Y017290D01*
X020006Y017381D01*
X019982Y017469D01*
X019947Y017554D01*
X019901Y017633D01*
X019845Y017706D01*
X019780Y017771D01*
X019707Y017827D01*
X019628Y017873D01*
X019543Y017908D01*
X019454Y017932D01*
X019363Y017944D01*
X019318Y017944D01*
X019318Y016894D01*
X020018Y016894D01*
X019318Y016894D01*
X019318Y016894D01*
X019318Y016894D01*
X019318Y017944D01*
X019272Y017944D01*
X019181Y017932D01*
X019092Y017908D01*
X019007Y017873D01*
X018928Y017827D01*
X018855Y017771D01*
X018790Y017706D01*
X018734Y017633D01*
X018688Y017554D01*
X018653Y017469D01*
X018630Y017381D01*
X018618Y017290D01*
X018618Y016894D01*
X019318Y016894D01*
X019318Y016894D01*
X018618Y016894D01*
X018618Y016498D01*
X018630Y016407D01*
X018653Y016318D01*
X018661Y016300D01*
X018222Y016300D01*
X018249Y016365D01*
X018249Y017423D01*
X018112Y017754D01*
X017859Y018007D01*
X017528Y018144D01*
X017170Y018144D01*
X016839Y018007D01*
X016586Y017754D01*
X016449Y017423D01*
X016449Y016365D01*
X016476Y016300D01*
X015979Y016300D01*
X015997Y016368D01*
X016008Y016456D01*
X016008Y016500D01*
X016008Y016544D01*
X015997Y016632D01*
X015974Y016717D01*
X015940Y016799D01*
X015896Y016876D01*
X015842Y016946D01*
X015779Y017009D01*
X015709Y017062D01*
X015633Y017107D01*
X015551Y017141D01*
X015465Y017163D01*
X015378Y017175D01*
X015333Y017175D01*
X015289Y017175D01*
X015201Y017163D01*
X015116Y017141D01*
X015034Y017107D01*
X014958Y017062D01*
X014887Y017009D01*
X014825Y016946D01*
X014771Y016876D01*
X014727Y016799D01*
X014693Y016717D01*
X014670Y016632D01*
X014658Y016544D01*
X014658Y016500D01*
X015333Y016500D01*
X014658Y016500D01*
X014658Y016456D01*
X014670Y016368D01*
X014688Y016300D01*
X014479Y016300D01*
X014497Y016368D01*
X014508Y016456D01*
X014508Y016500D01*
X014508Y016544D01*
X014497Y016632D01*
X014474Y016717D01*
X014440Y016799D01*
X014396Y016876D01*
X014342Y016946D01*
X014279Y017009D01*
X014209Y017062D01*
X014133Y017107D01*
X014051Y017141D01*
X013965Y017163D01*
X013878Y017175D01*
X013833Y017175D01*
X013789Y017175D01*
X013701Y017163D01*
X013616Y017141D01*
X013534Y017107D01*
X013458Y017062D01*
X013387Y017009D01*
X013325Y016946D01*
X013271Y016876D01*
X013227Y016799D01*
X013193Y016717D01*
X013170Y016632D01*
X013158Y016544D01*
X013158Y016500D01*
X013833Y016500D01*
X013158Y016500D01*
X013158Y016456D01*
X013170Y016368D01*
X013188Y016300D01*
X012474Y016300D01*
X012482Y016318D01*
X012506Y016407D01*
X012518Y016498D01*
X012518Y016894D01*
X012518Y017290D01*
X012506Y017381D01*
X012482Y017469D01*
X012447Y017554D01*
X012401Y017633D01*
X012345Y017706D01*
X012280Y017771D01*
X012207Y017827D01*
X012128Y017873D01*
X012043Y017908D01*
X011954Y017932D01*
X011863Y017944D01*
X011818Y017944D01*
X011818Y016894D01*
X012518Y016894D01*
X011818Y016894D01*
X011818Y016894D01*
X011818Y016894D01*
X011818Y017944D01*
X011772Y017944D01*
X011681Y017932D01*
X011592Y017908D01*
X011507Y017873D01*
X011428Y017827D01*
X011355Y017771D01*
X011290Y017706D01*
X011234Y017633D01*
X011188Y017554D01*
X011153Y017469D01*
X011130Y017381D01*
X011118Y017290D01*
X011118Y016894D01*
X011818Y016894D01*
X011818Y016894D01*
X011118Y016894D01*
X011118Y016498D01*
X011130Y016407D01*
X011153Y016318D01*
X011161Y016300D01*
X010722Y016300D01*
X010749Y016365D01*
X010749Y017423D01*
X010612Y017754D01*
X010359Y018007D01*
X010028Y018144D01*
X009670Y018144D01*
X009339Y018007D01*
X009086Y017754D01*
X008949Y017423D01*
X008949Y016365D01*
X009033Y016161D01*
X009033Y015841D01*
X009155Y015547D01*
X009880Y014822D01*
X010174Y014700D01*
X013478Y014700D01*
X013659Y014625D01*
X014007Y014625D01*
X014188Y014700D01*
X014978Y014700D01*
X015159Y014625D01*
X015507Y014625D01*
X015688Y014700D01*
X016002Y014700D01*
X016655Y014047D01*
X016655Y014047D01*
X016880Y013822D01*
X017174Y013700D01*
X018907Y013700D01*
X018875Y013687D01*
X018647Y013459D01*
X018523Y013161D01*
X018523Y012839D01*
X018539Y012800D01*
X018306Y012800D01*
X018016Y012920D01*
X017650Y012920D01*
X017361Y012800D01*
X017306Y012800D01*
X017016Y012920D01*
X016650Y012920D01*
X016312Y012780D01*
X016053Y012521D01*
X015913Y012183D01*
X015913Y011817D01*
X016053Y011479D01*
X016312Y011220D01*
X016650Y011080D01*
X016782Y011080D01*
X016602Y010900D01*
X016312Y010780D01*
X016053Y010521D01*
X015933Y010231D01*
X015380Y009678D01*
X015155Y009453D01*
X015033Y009159D01*
X015033Y006341D01*
X015155Y006047D01*
X015655Y005547D01*
X015880Y005322D01*
X016174Y005200D01*
X016361Y005200D01*
X016650Y005080D01*
X017016Y005080D01*
X017354Y005220D01*
X017613Y005479D01*
X017753Y005817D01*
X017753Y006183D01*
X017613Y006521D01*
X017354Y006780D01*
X017016Y006920D01*
X016650Y006920D01*
X016633Y007449D02*
X017083Y007449D01*
X016913Y007948D02*
X016633Y007948D01*
X016633Y008446D02*
X017022Y008446D01*
X017833Y008000D02*
X022833Y008000D01*
X023333Y008500D01*
X023849Y007984D01*
X024227Y007984D01*
X023333Y008500D02*
X023333Y010500D01*
X022833Y011000D01*
X022333Y011000D01*
X023528Y011437D02*
X025553Y011437D01*
X025553Y011936D02*
X023900Y011936D01*
X024133Y012434D02*
X025553Y012434D01*
X025553Y012933D02*
X024133Y012933D01*
X024133Y013431D02*
X025553Y013431D01*
X025553Y013930D02*
X024133Y013930D01*
X024133Y014428D02*
X025553Y014428D01*
X025553Y014927D02*
X024133Y014927D01*
X024023Y015425D02*
X025553Y015425D01*
X025553Y015924D02*
X023605Y015924D01*
X023504Y016422D02*
X025553Y016422D01*
X025553Y016921D02*
X023361Y016921D01*
X023508Y016500D02*
X022833Y016500D01*
X022833Y016500D01*
X022833Y017175D01*
X022833Y016500D01*
X022833Y016500D01*
X022833Y016500D01*
X023508Y016500D01*
X022833Y016921D02*
X022833Y016921D01*
X022305Y016921D02*
X021861Y016921D01*
X021333Y016921D02*
X021333Y016921D01*
X021333Y017175D02*
X021333Y016500D01*
X021333Y016500D01*
X021333Y017175D01*
X020805Y016921D02*
X020018Y016921D01*
X019318Y016921D02*
X019318Y016921D01*
X018618Y016921D02*
X018249Y016921D01*
X017349Y016894D02*
X017333Y016878D01*
X017333Y016000D01*
X017833Y015500D01*
X021333Y015500D01*
X022833Y015500D01*
X023333Y015000D01*
X023333Y012500D01*
X022833Y012000D01*
X022333Y012000D01*
X024018Y010939D02*
X025553Y010939D01*
X025553Y010440D02*
X024133Y010440D01*
X024133Y009942D02*
X025553Y009942D01*
X025553Y009443D02*
X024133Y009443D01*
X024133Y008945D02*
X025553Y008945D01*
X025553Y008446D02*
X025360Y008446D01*
X025477Y007948D02*
X025553Y007948D01*
X025553Y007449D02*
X025315Y007449D01*
X024227Y006452D02*
X024227Y006452D01*
X024227Y006016D02*
X024227Y006016D01*
X024227Y005954D02*
X024227Y005954D01*
X024227Y005455D02*
X024227Y005455D01*
X023458Y005455D02*
X017589Y005455D01*
X017753Y005954D02*
X023179Y005954D01*
X023329Y006452D02*
X017642Y006452D01*
X016833Y006000D02*
X016333Y006000D01*
X015833Y006500D01*
X015833Y009000D01*
X016833Y010000D01*
X017833Y011000D01*
X019333Y011000D01*
X020333Y010000D02*
X020833Y010500D01*
X020833Y014000D01*
X020333Y014500D01*
X017333Y014500D01*
X016333Y015500D01*
X015333Y015500D01*
X013833Y015500D01*
X010333Y015500D01*
X009833Y016000D01*
X009833Y016878D01*
X010749Y016921D02*
X011118Y016921D01*
X011818Y016921D02*
X011818Y016921D01*
X012518Y016921D02*
X013305Y016921D01*
X013833Y016921D02*
X013833Y016921D01*
X013833Y017175D02*
X013833Y016500D01*
X013833Y016500D01*
X013833Y017175D01*
X014361Y016921D02*
X014805Y016921D01*
X014508Y016500D02*
X013833Y016500D01*
X013833Y016500D01*
X013833Y016500D01*
X014508Y016500D01*
X014504Y016422D02*
X014663Y016422D01*
X015333Y016500D02*
X015333Y016500D01*
X015333Y017175D01*
X015333Y016500D01*
X015333Y016500D01*
X016008Y016500D01*
X015333Y016500D01*
X015333Y016500D01*
X015333Y016921D02*
X015333Y016921D01*
X015861Y016921D02*
X016449Y016921D01*
X016449Y017419D02*
X012495Y017419D01*
X011818Y017419D02*
X011818Y017419D01*
X011818Y017918D02*
X011818Y017918D01*
X012007Y017918D02*
X016750Y017918D01*
X017948Y017918D02*
X019128Y017918D01*
X019318Y017918D02*
X019318Y017918D01*
X019507Y017918D02*
X025553Y017918D01*
X025553Y017419D02*
X019995Y017419D01*
X019318Y017419D02*
X019318Y017419D01*
X018640Y017419D02*
X018249Y017419D01*
X018249Y016422D02*
X018628Y016422D01*
X020008Y016422D02*
X020663Y016422D01*
X021333Y016500D02*
X021333Y016500D01*
X022008Y016500D01*
X021333Y016500D01*
X021333Y016500D01*
X022004Y016422D02*
X022163Y016422D01*
X018635Y013431D02*
X008483Y013431D01*
X008827Y012994D02*
X009080Y013247D01*
X009411Y013384D01*
X010469Y013384D01*
X010799Y013247D01*
X011053Y012994D01*
X011133Y012800D01*
X012361Y012800D01*
X012650Y012920D01*
X013016Y012920D01*
X013354Y012780D01*
X013613Y012521D01*
X013753Y012183D01*
X013753Y011817D01*
X013613Y011479D01*
X013354Y011220D01*
X013016Y011080D01*
X012650Y011080D01*
X012361Y011200D01*
X010441Y011200D01*
X010515Y011180D01*
X010600Y011145D01*
X010679Y011099D01*
X010752Y011043D01*
X010817Y010978D01*
X010873Y010905D01*
X010919Y010826D01*
X010954Y010741D01*
X010978Y010653D01*
X010990Y010562D01*
X010990Y010516D01*
X009940Y010516D01*
X009940Y010516D01*
X009940Y010516D01*
X009940Y011216D01*
X010227Y011216D01*
X009971Y011322D01*
X009746Y011547D01*
X009708Y011584D01*
X009411Y011584D01*
X009080Y011721D01*
X008827Y011974D01*
X008690Y012305D01*
X008690Y012663D01*
X008827Y012994D01*
X008801Y012933D02*
X008483Y012933D01*
X008483Y012434D02*
X008690Y012434D01*
X008866Y011936D02*
X008483Y011936D01*
X008483Y011437D02*
X009856Y011437D01*
X009940Y011216D02*
X009544Y011216D01*
X009453Y011204D01*
X009364Y011180D01*
X009279Y011145D01*
X009200Y011099D01*
X009127Y011043D01*
X009062Y010978D01*
X009006Y010905D01*
X008960Y010826D01*
X008925Y010741D01*
X008902Y010653D01*
X008890Y010562D01*
X008890Y010516D01*
X009940Y010516D01*
X010990Y010516D01*
X010990Y010470D01*
X010978Y010379D01*
X010954Y010290D01*
X010919Y010205D01*
X010873Y010126D01*
X010817Y010053D01*
X010752Y009988D01*
X010679Y009932D01*
X010600Y009887D01*
X010515Y009851D01*
X010426Y009828D01*
X010336Y009816D01*
X009940Y009816D01*
X009940Y010516D01*
X009940Y011216D01*
X009940Y010939D02*
X009940Y010939D01*
X009940Y010516D02*
X009940Y010516D01*
X009940Y010516D01*
X009940Y009816D01*
X009544Y009816D01*
X009453Y009828D01*
X009364Y009851D01*
X009279Y009887D01*
X009200Y009932D01*
X009127Y009988D01*
X009062Y010053D01*
X009006Y010126D01*
X008960Y010205D01*
X008925Y010290D01*
X008902Y010379D01*
X008890Y010470D01*
X008890Y010516D01*
X009940Y010516D01*
X009940Y010440D02*
X009940Y010440D01*
X009940Y009942D02*
X009940Y009942D01*
X010691Y009942D02*
X011913Y009942D01*
X011913Y009817D02*
X012053Y009479D01*
X012312Y009220D01*
X012650Y009080D01*
X013016Y009080D01*
X013033Y009087D01*
X013033Y008864D01*
X013007Y008875D01*
X012659Y008875D01*
X012478Y008800D01*
X011674Y008800D01*
X011636Y008784D01*
X010710Y008784D01*
X010469Y008884D01*
X009411Y008884D01*
X009080Y008747D01*
X008827Y008494D01*
X008690Y008163D01*
X008690Y007805D01*
X008827Y007474D01*
X009080Y007221D01*
X009411Y007084D01*
X010469Y007084D01*
X010710Y007184D01*
X011977Y007184D01*
X012015Y007200D01*
X012188Y007200D01*
X012170Y007132D01*
X012158Y007044D01*
X012158Y007000D01*
X012833Y007000D01*
X012158Y007000D01*
X012158Y006956D01*
X012170Y006868D01*
X012193Y006783D01*
X012227Y006701D01*
X012271Y006624D01*
X012325Y006554D01*
X012347Y006532D01*
X012291Y006476D01*
X012233Y006401D01*
X012186Y006319D01*
X012150Y006232D01*
X012126Y006141D01*
X012113Y006047D01*
X012113Y006000D01*
X012113Y005953D01*
X012126Y005859D01*
X012150Y005768D01*
X012186Y005681D01*
X012233Y005599D01*
X012291Y005524D01*
X012358Y005458D01*
X012432Y005400D01*
X012514Y005353D01*
X012601Y005317D01*
X012693Y005292D01*
X012786Y005280D01*
X012833Y005280D01*
X012833Y006000D01*
X012113Y006000D01*
X012833Y006000D01*
X012833Y006000D01*
X012833Y006000D01*
X012833Y007000D01*
X012833Y007000D01*
X012833Y007000D01*
X012833Y006325D01*
X012833Y006000D01*
X012833Y006000D01*
X012833Y005280D01*
X012881Y005280D01*
X012974Y005292D01*
X013065Y005317D01*
X013152Y005353D01*
X013234Y005400D01*
X013309Y005458D01*
X013376Y005524D01*
X013433Y005599D01*
X013480Y005681D01*
X013517Y005768D01*
X013541Y005859D01*
X013553Y005953D01*
X013553Y006000D01*
X012833Y006000D01*
X013553Y006000D01*
X013553Y006047D01*
X013541Y006141D01*
X013517Y006232D01*
X013480Y006319D01*
X013433Y006401D01*
X013376Y006476D01*
X013320Y006532D01*
X013342Y006554D01*
X013396Y006624D01*
X013440Y006701D01*
X013474Y006783D01*
X013497Y006868D01*
X013508Y006956D01*
X013508Y007000D01*
X013508Y007044D01*
X013497Y007132D01*
X013479Y007200D01*
X013492Y007200D01*
X013786Y007322D01*
X014286Y007822D01*
X014512Y008047D01*
X014633Y008341D01*
X014633Y009659D01*
X014512Y009953D01*
X014012Y010453D01*
X013786Y010678D01*
X013492Y010800D01*
X013306Y010800D01*
X013016Y010920D01*
X012650Y010920D01*
X012312Y010780D01*
X012053Y010521D01*
X011913Y010183D01*
X011913Y009817D01*
X012089Y009443D02*
X008483Y009443D01*
X008483Y008945D02*
X013033Y008945D01*
X013833Y008500D02*
X013833Y009500D01*
X013333Y010000D01*
X012833Y010000D01*
X012020Y010440D02*
X010986Y010440D01*
X010848Y010939D02*
X016640Y010939D01*
X016095Y011437D02*
X013571Y011437D01*
X013753Y011936D02*
X015913Y011936D01*
X016833Y012000D02*
X017833Y012000D01*
X019333Y012000D01*
X018523Y012933D02*
X011078Y012933D01*
X010424Y012000D02*
X009940Y012484D01*
X010424Y012000D02*
X012833Y012000D01*
X013649Y012434D02*
X016017Y012434D01*
X016772Y013930D02*
X008483Y013930D01*
X008483Y014428D02*
X016274Y014428D01*
X016449Y016422D02*
X016004Y016422D01*
X013163Y016422D02*
X012508Y016422D01*
X011128Y016422D02*
X010749Y016422D01*
X009277Y015425D02*
X008483Y015425D01*
X008483Y014927D02*
X009775Y014927D01*
X009033Y015924D02*
X008483Y015924D01*
X008483Y016422D02*
X008949Y016422D01*
X008949Y016921D02*
X008483Y016921D01*
X008483Y017419D02*
X008949Y017419D01*
X009250Y017918D02*
X008483Y017918D01*
X010448Y017918D02*
X011628Y017918D01*
X011140Y017419D02*
X010749Y017419D01*
X009032Y010939D02*
X008483Y010939D01*
X008483Y010440D02*
X008894Y010440D01*
X009188Y009942D02*
X008483Y009942D01*
X008483Y008446D02*
X008807Y008446D01*
X008690Y007948D02*
X008483Y007948D01*
X008483Y007449D02*
X008852Y007449D01*
X008483Y006951D02*
X012159Y006951D01*
X012273Y006452D02*
X010837Y006452D01*
X010817Y006478D02*
X010873Y006405D01*
X010919Y006326D01*
X010954Y006241D01*
X010978Y006153D01*
X010990Y006062D01*
X010990Y006016D01*
X009940Y006016D01*
X009940Y006016D01*
X009940Y006016D01*
X009940Y006716D01*
X010336Y006716D01*
X010426Y006704D01*
X010515Y006680D01*
X010600Y006645D01*
X010679Y006599D01*
X010752Y006543D01*
X010817Y006478D01*
X010990Y006016D02*
X009940Y006016D01*
X009940Y006716D01*
X009544Y006716D01*
X009453Y006704D01*
X009364Y006680D01*
X009279Y006645D01*
X009200Y006599D01*
X009127Y006543D01*
X009062Y006478D01*
X009006Y006405D01*
X008960Y006326D01*
X008925Y006241D01*
X008902Y006153D01*
X008890Y006062D01*
X008890Y006016D01*
X009940Y006016D01*
X009940Y005316D01*
X010336Y005316D01*
X010426Y005328D01*
X010515Y005351D01*
X010600Y005387D01*
X010679Y005432D01*
X010752Y005488D01*
X010817Y005553D01*
X010873Y005626D01*
X010919Y005705D01*
X010954Y005790D01*
X010978Y005879D01*
X010990Y005970D01*
X010990Y006016D01*
X010987Y005954D02*
X012113Y005954D01*
X012361Y005455D02*
X010709Y005455D01*
X009940Y005455D02*
X009940Y005455D01*
X009940Y005316D02*
X009544Y005316D01*
X009453Y005328D01*
X009364Y005351D01*
X009279Y005387D01*
X009200Y005432D01*
X009127Y005488D01*
X009062Y005553D01*
X009006Y005626D01*
X008960Y005705D01*
X008925Y005790D01*
X008902Y005879D01*
X008890Y005970D01*
X008890Y006016D01*
X009940Y006016D01*
X009940Y006016D01*
X009940Y006016D01*
X009940Y005316D01*
X009171Y005455D02*
X008483Y005455D01*
X008483Y005954D02*
X008892Y005954D01*
X009042Y006452D02*
X008483Y006452D01*
X009940Y006452D02*
X009940Y006452D01*
X009940Y005954D02*
X009940Y005954D01*
X012833Y005954D02*
X012833Y005954D01*
X012833Y006000D02*
X012833Y006000D01*
X012833Y006452D02*
X012833Y006452D01*
X012833Y006951D02*
X012833Y006951D01*
X012833Y007000D02*
X012833Y007000D01*
X013508Y007000D01*
X012833Y007000D01*
X013508Y006951D02*
X015033Y006951D01*
X015033Y006452D02*
X013394Y006452D01*
X013553Y005954D02*
X015248Y005954D01*
X015747Y005455D02*
X013306Y005455D01*
X012833Y005455D02*
X012833Y005455D01*
X013914Y007449D02*
X015033Y007449D01*
X015033Y007948D02*
X014412Y007948D01*
X014633Y008446D02*
X015033Y008446D01*
X015033Y008945D02*
X014633Y008945D01*
X014633Y009443D02*
X015151Y009443D01*
X015643Y009942D02*
X014516Y009942D01*
X014025Y010440D02*
X016020Y010440D01*
X017577Y009443D02*
X018745Y009443D01*
X018523Y009942D02*
X017906Y009942D01*
X016909Y008945D02*
X022533Y008945D01*
X021745Y009443D02*
X020908Y009443D01*
X021406Y009942D02*
X021523Y009942D01*
X020333Y010000D02*
X019333Y010000D01*
X013833Y008500D02*
X013333Y008000D01*
X012833Y008000D01*
X011833Y008000D01*
X011818Y007984D01*
X009940Y007984D01*
M02*
